<svg xmlns="http://www.w3.org/2000/svg" width="92" height="45" viewBox="0 0 92 45" fill="none">
<path fill-rule="evenodd" clip-rule="evenodd" d="M25.8517 27.2455C25.9336 27.5727 26.0972 27.9818 26.2608 28.3091C26.5881 29.3727 26.7517 30.3546 26.5063 31.3364C26.179 33.4636 24.7881 35.2636 22.7427 36.0818C22.0881 36.4091 21.2699 36.5727 20.4517 36.5727C20.329 36.5727 20.2063 36.5523 20.0836 36.5318L20.0835 36.5318C19.9608 36.5114 19.8381 36.4909 19.7154 36.4909C18.8154 36.3273 17.8336 36.0818 16.8517 35.5091C15.7063 34.8546 14.479 33.9546 13.2517 32.5636C11.9427 33.8727 10.7972 34.8546 9.65174 35.5091C8.75174 36.0818 7.76993 36.4091 6.78811 36.4909C6.54265 36.5727 6.2972 36.5727 6.05174 36.5727C5.23356 36.5727 4.41538 36.4091 3.84265 36.2455C1.7972 35.4273 0.406288 33.6273 0.0790155 31.5C-0.0846208 30.4364 -0.00280267 29.4546 0.406288 28.3909C0.488106 27.9818 0.651743 27.6546 0.815379 27.3273C0.912194 27.1014 1.00901 26.9009 1.1008 26.7109L1.10081 26.7109C1.24174 26.4191 1.37083 26.1518 1.46992 25.8546V25.7727C3.43356 21.5182 5.56083 17.1818 7.85174 12.8455L7.93356 12.6818C8.04047 12.4146 8.18229 12.1473 8.33623 11.8572C8.41791 11.7033 8.50301 11.5429 8.58811 11.3727C8.67975 11.2353 8.77139 11.0914 8.86483 10.9447L8.86489 10.9446L8.86493 10.9445C9.10515 10.5674 9.35724 10.1716 9.65174 9.81819C10.6336 8.75455 11.8608 8.10001 13.3336 8.10001C14.8063 8.10001 16.1154 8.75455 17.0154 9.90001C17.3558 10.2404 17.5781 10.6201 17.7916 10.9846C17.886 11.1458 17.9787 11.304 18.079 11.4546C18.2427 11.8636 18.4881 12.3546 18.7336 12.7636L18.8154 12.9273C21.1063 17.1818 23.2336 21.5182 25.1972 25.7727C25.3608 26.2636 25.6063 26.7546 25.8517 27.2455ZM48.4336 15.2182C48.4336 16.2818 47.6154 17.1 46.5518 17.1C45.4881 17.1 44.6699 16.2818 44.6699 15.2182C44.6699 14.1545 45.4881 13.3364 46.5518 13.3364C47.6154 13.4182 48.4336 14.2364 48.4336 15.2182ZM40.7427 18.9818V19.4727C40.7427 19.4727 39.8427 18.3273 37.9608 18.3273C34.8517 18.3273 32.3972 20.7 32.3972 23.9727C32.3972 27.2455 34.8517 29.6182 37.9608 29.6182C39.9245 29.6182 40.7427 28.4727 40.7427 28.4727V28.9636C40.7427 29.2091 40.9063 29.3727 41.1517 29.3727H43.4427V18.5727H41.1517C40.9063 18.5727 40.7427 18.8182 40.7427 18.9818ZM38.4517 27C39.4335 27 40.3335 26.5091 40.7426 25.8546V21.9273C40.4153 21.3546 39.4335 20.7818 38.4517 20.7818C36.5699 20.7818 35.179 21.9273 35.179 23.8909C35.179 25.8546 36.5699 27 38.4517 27ZM45.1608 29.2909H47.9426V18.5727H45.1608V29.2909ZM83.6972 19.4727C83.6972 19.4727 84.5972 18.3273 86.479 18.3273C89.5881 18.3273 91.9609 20.7 91.9609 23.9727C91.9609 27.2455 89.5063 29.6182 86.3972 29.6182C84.5154 29.6182 83.6154 28.4727 83.6154 28.4727V28.9636C83.6154 29.2091 83.4518 29.3727 83.2063 29.3727H80.9154V13.5H83.6972V19.4727ZM85.9881 27C84.9245 27 84.1063 26.4273 83.6972 25.8545V22.0091C84.1063 21.4364 85.0881 20.8636 85.9881 20.8636C87.8699 20.8636 89.2608 22.0091 89.2608 23.9727C89.2608 25.9364 87.8699 27 85.9881 27ZM79.4426 29.2909V22.9091C79.4426 21.1909 79.1153 20.1273 78.1335 19.3909C77.3153 18.6545 76.3335 18.3273 75.1063 18.3273C74.0426 18.3273 72.979 18.6545 72.1608 19.4727V18.9818C72.1608 18.7364 71.9972 18.5727 71.7517 18.5727H69.5426V29.2909H72.3244V21.8455C72.8153 21.1909 73.7153 20.7818 74.5335 20.7818C76.0881 20.7818 76.6608 21.4364 76.6608 23.2364V29.2909H79.4426ZM62.8336 18.3273C60.9518 18.3273 60.0518 19.4727 60.0518 19.4727V13.5H57.27V29.3727H59.5609C59.8063 29.3727 59.97 29.2091 59.97 28.9636V28.4727C59.97 28.4727 60.87 29.6182 62.7518 29.6182C65.8609 29.6182 68.3154 27.2455 68.3154 23.9727C68.4791 20.7 66.0245 18.3273 62.8336 18.3273ZM60.1336 25.8545C60.5427 26.4273 61.3608 27 62.4245 27C64.2245 27 65.6972 25.9364 65.6972 23.9727C65.6972 22.0091 64.3063 20.8636 62.4245 20.8636C61.5245 20.8636 60.5427 21.4364 60.1336 22.0091V25.8545ZM54.8972 18.3273C55.7154 18.3273 56.1245 18.4909 56.1245 18.4909V21.0273C56.1245 21.0273 53.8336 20.2909 52.3609 21.8455V29.3727H49.5791V18.5727H51.87C52.1154 18.5727 52.2791 18.7364 52.2791 18.9818V19.4727C52.9336 18.8182 54.0791 18.3273 54.8972 18.3273ZM13.2518 29.7818C11.6972 27.8182 10.7154 26.0182 10.3063 24.4636C10.1427 23.8091 10.1427 23.2364 10.2245 22.7454C10.3063 22.2545 10.47 21.9273 10.7154 21.5182C11.2882 20.7818 12.1882 20.2909 13.2518 20.2909C14.3154 20.2909 15.2972 20.7818 15.7882 21.5182C16.0336 21.8454 16.1972 22.2545 16.2791 22.7454C16.3609 23.2364 16.3609 23.8909 16.1972 24.4636C15.7882 26.0182 14.8063 27.8182 13.2518 29.7818ZM22.0881 34.5273C23.479 33.9545 24.5426 32.6454 24.7063 31.1727C24.8699 30.4363 24.7881 29.7 24.4608 28.9636C24.379 28.7182 24.2154 28.3909 24.0517 28.0636C23.9072 27.8228 23.7911 27.5536 23.6699 27.2727C23.5852 27.0765 23.4981 26.8746 23.3972 26.6727C21.4335 22.4182 19.3063 18.0818 17.0972 13.8273L17.0154 13.6636C16.8517 13.2545 16.6063 12.7636 16.3608 12.3545C16.1154 11.9454 15.8699 11.5364 15.5426 11.1273C14.9699 10.4727 14.1517 10.0636 13.2517 10.0636C12.3517 10.0636 11.5335 10.4727 10.9608 11.1273C10.6335 11.4545 10.3881 11.8636 10.1426 12.3545C9.97899 12.7636 9.73354 13.2545 9.48808 13.6636L9.40626 13.8273C7.19717 18 5.0699 22.3364 3.10626 26.5909V26.6727C3.04356 26.7981 2.98086 26.9182 2.91953 27.0356C2.74075 27.378 2.57355 27.6981 2.45172 28.0636C2.28808 28.3909 2.12444 28.7182 2.04263 28.9636C1.79717 29.7818 1.71535 30.4363 1.79717 31.1727C1.96081 32.6454 3.02444 33.9545 4.41535 34.5273C5.0699 34.7727 5.80626 34.8545 6.62444 34.7727C7.36081 34.6909 8.09717 34.4454 8.83354 34.0364C9.89717 33.4636 10.9608 32.5636 12.1063 31.2545C10.2244 28.9636 8.99717 26.8364 8.58808 24.9545C8.34263 24.0545 8.34263 23.2364 8.42444 22.5C8.50626 21.7636 8.75172 21.1091 9.16081 20.5364C10.0608 19.2273 11.6154 18.4909 13.2517 18.4909C14.9699 18.4909 16.4426 19.2273 17.3426 20.5364C17.6699 21.1091 17.9972 21.7636 18.079 22.5C18.1608 23.2364 18.079 24.0545 17.9154 24.9545C17.4244 26.8364 16.279 28.9636 14.3972 31.2545C15.6244 32.5636 16.6063 33.4636 17.6699 34.0364C18.4063 34.4454 19.1426 34.6909 19.879 34.7727C20.6154 34.9363 21.4335 34.7727 22.0881 34.5273Z" fill="white"/>
</svg>