<svg xmlns="http://www.w3.org/2000/svg" width="36" height="37" fill="none"><path fill="#fff" d="M31.272 10.988H25.9c.146-.844.665-1.314 1.72-1.85l.99-.503c1.77-.909 2.71-1.931 2.71-3.603 0-1.055-.405-1.883-1.217-2.483-.795-.6-1.769-.893-2.889-.893-.893 0-1.704.227-2.45.698-.73.455-1.282 1.039-1.623 1.769l1.558 1.558c.6-1.217 1.477-1.818 2.629-1.818.974 0 1.574.504 1.574 1.201 0 .585-.292 1.072-1.412 1.64l-.633.308c-1.38.697-2.337 1.493-2.889 2.402-.551.892-.827 2.045-.827 3.424v.373h8.13v-2.223h.001zM30.554 15.78H21.66l-4.448 7.704h8.895l4.448 7.703 4.448-7.703-4.448-7.704z"/><path fill="#fff" d="M17.975 28.62c-5.664 0-10.271-4.608-10.271-10.272 0-5.663 4.608-10.271 10.271-10.271l3.517-7.36a18.076 18.076 0 00-3.517-.344C8.048.373 0 8.421 0 18.348c0 9.927 8.048 17.975 17.975 17.975 3.958 0 7.617-1.28 10.586-3.448l-3.894-6.744a10.224 10.224 0 01-6.692 2.488z"/></svg>