<svg xmlns="http://www.w3.org/2000/svg" aria-hidden="true" viewBox="0 0 14 14" role="img"><g fill-rule="evenodd"><path d="M7 1.263c1.868 0 2.09.007 2.828.04.682.032 1.053.146 1.3.242.326.127.559.278.804.523s.396.478.523.805c.096.246.21.617.241 1.3.034.737.04.958.04 2.827 0 1.868-.006 2.09-.04 2.828-.031.682-.145 1.053-.24 1.3-.128.326-.28.559-.524.804a2.168 2.168 0 01-.805.523c-.247.096-.617.21-1.3.241-.737.034-.958.04-2.827.04s-2.09-.006-2.828-.04c-.682-.031-1.052-.145-1.3-.24a2.168 2.168 0 01-.804-.524 2.168 2.168 0 01-.523-.805c-.096-.247-.21-.617-.241-1.3-.034-.737-.04-.959-.04-2.827 0-1.869.006-2.09.04-2.828.031-.682.145-1.052.24-1.3.128-.326.28-.559.524-.804.245-.245.478-.396.805-.523.246-.096.617-.21 1.3-.241.737-.034.958-.04 2.827-.04M7 .001c-1.9 0-2.139.008-2.885.042C3.37.078 2.86.197 2.416.37a3.43 3.43 0 00-1.24.807 3.43 3.43 0 00-.806 1.24C.197 2.86.078 3.37.044 4.114.01 4.86.002 5.099.002 7c0 1.9.008 2.139.042 2.885.034.745.153 1.254.326 1.699.178.46.418.85.807 1.24.389.388.779.628 1.24.806.444.173.953.292 1.698.326.746.034.984.042 2.885.042 1.9 0 2.139-.008 2.885-.042.745-.034 1.254-.153 1.699-.326a3.43 3.43 0 001.24-.807 3.43 3.43 0 00.806-1.24c.173-.444.292-.953.326-1.698.034-.746.042-.985.042-2.885s-.008-2.139-.042-2.885c-.034-.745-.153-1.254-.326-1.699a3.43 3.43 0 00-.807-1.24 3.43 3.43 0 00-1.24-.806C11.14.197 10.63.078 9.886.044 9.14.01 8.9.002 7 .002"></path><path d="M7 3.407a3.593 3.593 0 100 7.186 3.593 3.593 0 000-7.186zm0 5.926a2.333 2.333 0 110-4.666 2.333 2.333 0 010 4.666zm4.575-6.068a.84.84 0 11-1.68 0 .84.84 0 011.68 0"></path></g></svg>