<svg xmlns="http://www.w3.org/2000/svg" width="215" height="44" viewBox="0 0 215 44" fill="none">
<path d="M42.6241 2.01089C37.4887 -1.19769 30.7281 -0.433244 24.6984 3.35547C18.6875 -0.433244 11.9227 -1.19769 6.7936 2.01089C-1.31999 7.08135 -2.30644 20.1397 4.59241 31.1792C9.67754 39.3179 17.6299 44.0868 24.7088 43.9988C31.7878 44.0868 39.7401 39.3179 44.8253 31.1792C51.7157 20.1397 50.7377 7.08135 42.6241 2.01089ZM8.32249 28.8481C6.89997 26.5931 5.82668 24.1358 5.13904 21.5597C4.52811 19.3236 4.29452 17.0011 4.4479 14.6881C4.75577 10.6083 6.41661 7.43111 9.12254 5.74096C11.8285 4.0508 15.4056 3.94818 19.2153 5.46031C19.7871 5.6886 20.3525 5.95249 20.9138 6.24361C18.7968 8.17393 16.956 10.3869 15.4433 12.8199C11.2546 19.5219 9.97704 26.98 11.4389 32.9259C10.2733 31.6684 9.22976 30.303 8.32249 28.8481ZM44.2807 21.5576C43.5922 24.1334 42.5189 26.5905 41.0973 28.846C40.1892 30.303 39.1458 31.6711 37.9809 32.9322C39.2877 27.602 38.3997 21.0717 35.1953 14.9478C35.1442 14.8469 35.0724 14.7579 34.9847 14.6866C34.8969 14.6152 34.7952 14.563 34.6861 14.5334C34.5769 14.5038 34.4627 14.4974 34.351 14.5147C34.2392 14.5319 34.1323 14.5725 34.0372 14.6337L24.047 20.8749C23.9559 20.9317 23.8769 21.006 23.8145 21.0934C23.7521 21.1809 23.7076 21.2797 23.6835 21.3844C23.6593 21.4891 23.6561 21.5974 23.6739 21.7034C23.6917 21.8093 23.7303 21.9106 23.7873 22.0016L25.2534 24.3452C25.31 24.4363 25.3841 24.5153 25.4713 24.5776C25.5586 24.64 25.6573 24.6845 25.7618 24.7086C25.8663 24.7327 25.9745 24.736 26.0802 24.7182C26.186 24.7004 26.2872 24.6619 26.378 24.6049L32.8538 20.5586C33.0633 21.1869 33.2727 21.8152 33.4298 22.4436C34.0406 24.6769 34.2749 26.9964 34.123 29.3068C33.8152 33.3845 32.1543 36.5617 29.4484 38.2539C28.0527 39.1073 26.4535 39.5702 24.8177 39.5943H24.6104C22.9746 39.5707 21.3752 39.1078 19.9797 38.2539C17.2717 36.5617 15.6109 33.3845 15.303 29.3068C15.1506 26.9938 15.3841 24.6715 15.9942 22.4352C17.3978 17.2613 20.2992 12.6177 24.3339 9.08776C26.0739 7.56053 28.0556 6.33324 30.1982 5.45612C33.9974 3.94399 37.5808 4.04452 40.2888 5.73677C42.9969 7.42902 44.6556 10.6041 44.9635 14.6839C45.1188 16.9972 44.8881 19.3201 44.2807 21.5576ZM95.8483 16.684C90.5956 16.684 86.3503 20.7848 86.3503 26.0019C86.3503 31.1834 90.5956 35.2171 95.8483 35.2171C101.137 35.2171 105.382 31.1896 105.382 26.0019C105.382 20.7869 101.143 16.6861 95.8483 16.6861V16.684ZM95.8483 30.3456C93.4272 30.3456 91.5841 28.3874 91.5841 25.9663C91.5841 23.5452 93.4272 21.5576 95.8483 21.5576C98.305 21.5576 100.148 23.5515 100.148 25.9726C100.148 28.3937 98.305 30.354 95.8483 30.354V30.3456ZM117.226 9.52758H107.56C107.456 9.52558 107.352 9.5447 107.255 9.58381C107.158 9.62291 107.07 9.68118 106.996 9.75513C106.923 9.82907 106.865 9.91716 106.826 10.0141C106.787 10.111 106.768 10.2148 106.77 10.3192V33.883C106.763 33.9909 106.778 34.0992 106.814 34.201C106.851 34.3028 106.908 34.396 106.982 34.4747C107.056 34.5534 107.146 34.6159 107.245 34.6583C107.345 34.7006 107.452 34.7219 107.56 34.7207H117.226C124.96 34.7207 130.334 29.577 130.334 22.0938C130.334 14.5645 124.96 9.52758 117.226 9.52758ZM117.454 29.7445H112.166V14.4912H117.454C121.735 14.4912 124.686 17.6935 124.686 22.0833C124.686 26.3998 121.735 29.7445 117.454 29.7445ZM149.573 17.1909H145.939C145.738 17.2068 145.55 17.2964 145.411 17.4425C145.272 17.5886 145.191 17.7809 145.185 17.9825V19.0611C144.358 17.6935 142.488 16.6861 140.159 16.6861C135.627 16.6861 131.381 20.2466 131.381 25.9328C131.381 31.5876 135.589 35.2129 140.123 35.2129C142.461 35.2129 144.369 34.2076 145.196 32.84V33.9542C145.197 34.154 145.277 34.3454 145.418 34.4869C145.559 34.6284 145.75 34.7086 145.95 34.7103H149.584C149.683 34.7126 149.783 34.6946 149.876 34.6574C149.968 34.6202 150.053 34.5646 150.123 34.4939C150.194 34.4233 150.25 34.339 150.287 34.2462C150.324 34.1535 150.342 34.0541 150.34 33.9542V17.9825C150.343 17.8799 150.325 17.7776 150.288 17.6818C150.251 17.586 150.195 17.4986 150.124 17.4248C150.052 17.351 149.967 17.2923 149.872 17.2521C149.777 17.2119 149.676 17.1911 149.573 17.1909ZM141.12 30.3854C138.714 30.3854 136.906 28.5361 136.906 25.9705C136.906 23.4049 138.714 21.5576 141.12 21.5576C143.527 21.5576 145.334 23.4028 145.334 25.9684C145.334 28.534 143.529 30.3833 141.12 30.3833V30.3854ZM169.97 9.52758H166.336C166.235 9.52451 166.133 9.54173 166.038 9.57822C165.943 9.61471 165.857 9.66975 165.783 9.74012C165.71 9.8105 165.651 9.8948 165.61 9.98812C165.57 10.0814 165.548 10.1819 165.547 10.2836V18.9899C164.709 17.6935 162.812 16.6861 160.439 16.6861C155.94 16.6861 151.768 20.2466 151.768 25.9328C151.768 31.5876 155.976 35.2129 160.51 35.2129C162.847 35.2129 164.611 34.2076 165.582 32.84V33.9542C165.583 34.1542 165.663 34.3459 165.804 34.4875C165.945 34.6291 166.136 34.7092 166.336 34.7103H169.97C170.07 34.7129 170.17 34.6951 170.262 34.658C170.355 34.6209 170.44 34.5653 170.51 34.4946C170.581 34.4239 170.637 34.3395 170.674 34.2466C170.711 34.1537 170.729 34.0542 170.726 33.9542V10.2878C170.729 10.1875 170.712 10.0876 170.675 9.99417C170.638 9.90077 170.583 9.81588 170.512 9.7447C170.441 9.67351 170.357 9.61754 170.264 9.5802C170.17 9.54287 170.07 9.52496 169.97 9.52758ZM161.517 30.4294C159.121 30.4294 157.329 28.5612 157.329 25.9684C157.329 23.3755 159.128 21.5074 161.517 21.5074C163.907 21.5074 165.706 23.3755 165.706 25.9684C165.706 28.5612 163.915 30.4294 161.517 30.4294ZM190.363 9.52758H186.736C186.634 9.52451 186.532 9.54171 186.437 9.57818C186.342 9.61465 186.255 9.66965 186.182 9.74C186.108 9.81035 186.049 9.89464 186.008 9.98797C185.967 10.0813 185.945 10.1818 185.944 10.2836V18.9899C185.117 17.6935 183.209 16.6861 180.836 16.6861C176.337 16.6861 172.165 20.2466 172.165 25.9328C172.165 31.5876 176.375 35.2129 180.907 35.2129C183.246 35.2129 185.008 34.2076 185.979 32.84V33.9542C185.981 34.1544 186.061 34.3461 186.202 34.4876C186.344 34.6292 186.535 34.7092 186.736 34.7103H190.363C190.463 34.7129 190.562 34.6951 190.655 34.658C190.748 34.6209 190.832 34.5653 190.903 34.4945C190.973 34.4237 191.029 34.3393 191.065 34.2464C191.102 34.1535 191.12 34.0541 191.117 33.9542V10.2878C191.12 10.1876 191.103 10.0877 191.067 9.99432C191.03 9.90093 190.975 9.81601 190.904 9.7448C190.834 9.67358 190.749 9.61757 190.656 9.58022C190.563 9.54286 190.463 9.52495 190.363 9.52758ZM181.91 30.4294C179.512 30.4294 177.721 28.5612 177.721 25.9684C177.721 23.3755 179.52 21.5074 181.91 21.5074C184.3 21.5074 186.099 23.3755 186.099 25.9684C186.099 28.5612 184.312 30.4294 181.916 30.4294H181.91ZM210.26 18.4161L204.837 37.012C203.79 40.3211 201.455 42.3003 197.821 42.3003C196.169 42.3003 194.665 41.9631 193.486 41.2887C192.799 40.897 192.229 40.5389 192.229 39.965C192.229 39.609 192.344 39.4247 192.554 39.0917L193.63 37.479C193.934 37.0287 194.158 36.8821 194.485 36.8821C194.744 36.8885 194.994 36.9756 195.201 37.1314C195.877 37.5691 196.506 37.9461 197.463 37.9461C198.581 37.9461 199.436 37.5879 199.897 36.2559L200.362 34.7124H198.167C197.942 34.7196 197.722 34.6479 197.544 34.5098C197.367 34.3717 197.243 34.1759 197.195 33.9563L192.342 18.4161C192.162 17.8045 192.327 17.193 193.226 17.193H197.048C197.515 17.193 197.842 17.3521 198.047 18.0202L201.631 30.5341L204.982 18.0202C205.089 17.5888 205.378 17.193 205.953 17.193H209.579C210.293 17.1909 210.509 17.6935 210.26 18.4161ZM84.9806 23.9473V33.8809C84.9823 33.9892 84.9622 34.0967 84.9216 34.1971C84.8809 34.2975 84.8205 34.3886 84.7439 34.4652C84.6673 34.5418 84.5762 34.6022 84.4758 34.6429C84.3754 34.6835 84.2679 34.7036 84.1596 34.7019H81.1605C81.0521 34.7039 80.9445 34.684 80.8439 34.6435C80.7434 34.6029 80.6521 34.5425 80.5755 34.4659C80.4989 34.3892 80.4385 34.2979 80.3979 34.1974C80.3574 34.0969 80.3375 33.9893 80.3395 33.8809V31.2734C78.4357 33.6777 75.1245 35.192 71.3798 35.192C64.3469 35.192 58.8512 29.9016 58.8512 22.3703C58.8512 14.5436 64.7846 9.1485 72.2803 9.1485C77.8137 9.1485 82.237 11.5277 84.2015 16.3133C84.2565 16.4398 84.2871 16.5755 84.2916 16.7134C84.2916 16.9396 84.1429 17.1113 83.6632 17.2767L80.1615 18.6255C79.9502 18.7131 79.7135 18.7168 79.4996 18.636C79.3121 18.5253 79.1652 18.3571 79.0808 18.1564C77.8241 15.7667 75.5874 14.1436 72.1442 14.1436C67.679 14.1436 64.4809 17.6307 64.4809 22.1524C64.4809 26.536 67.2036 30.1404 72.272 30.1404C74.9381 30.1404 77.0639 28.8837 78.0545 27.5035H74.892C74.7837 27.5052 74.6762 27.4852 74.5758 27.4445C74.4755 27.4039 74.3843 27.3434 74.3077 27.2669C74.2311 27.1903 74.1707 27.0991 74.1301 26.9987C74.0894 26.8984 74.0693 26.7908 74.071 26.6826V23.9829C74.0693 23.8746 74.0894 23.7671 74.1301 23.6667C74.1707 23.5664 74.2311 23.4752 74.3077 23.3986C74.3843 23.322 74.4755 23.2616 74.5758 23.221C74.6762 23.1803 74.7837 23.1602 74.892 23.1619H84.1596C84.2658 23.1565 84.3721 23.1728 84.4718 23.2099C84.5715 23.247 84.6626 23.3041 84.7394 23.3776C84.8163 23.4511 84.8773 23.5396 84.9188 23.6376C84.9603 23.7355 84.9813 23.8409 84.9806 23.9473ZM210.358 13.5132V13.2723C210.358 13.2554 210.364 13.239 210.375 13.2262C210.387 13.2155 210.402 13.2096 210.419 13.2095H211.95C211.958 13.2092 211.966 13.2105 211.973 13.2134C211.981 13.2163 211.988 13.2207 211.994 13.2262C212.005 13.239 212.011 13.2554 212.01 13.2723V13.5132C212.01 13.5294 212.004 13.545 211.994 13.5571C211.988 13.5627 211.981 13.5671 211.973 13.57C211.966 13.5728 211.958 13.5742 211.95 13.5739H211.39V15.0839C211.39 15.1004 211.383 15.1161 211.371 15.1278C211.36 15.1395 211.344 15.1462 211.328 15.1468H211.039C211.031 15.1467 211.023 15.145 211.016 15.1418C211.008 15.1385 211.002 15.1338 210.997 15.1279C210.991 15.1222 210.986 15.1154 210.983 15.1079C210.98 15.1003 210.978 15.0922 210.978 15.0839V13.5739H210.419C210.411 13.5745 210.402 13.5734 210.395 13.5706C210.387 13.5677 210.38 13.5633 210.374 13.5575C210.369 13.5517 210.364 13.5448 210.361 13.5371C210.358 13.5295 210.357 13.5213 210.358 13.5132ZM213.035 13.2639L213.453 14.2336L213.872 13.2639C213.879 13.2468 213.89 13.2321 213.906 13.222C213.923 13.213 213.943 13.2087 213.962 13.2095H214.448C214.456 13.2089 214.464 13.21 214.472 13.2127C214.479 13.2154 214.486 13.2197 214.492 13.2252C214.497 13.2307 214.502 13.2374 214.505 13.2448C214.508 13.2522 214.509 13.2602 214.509 13.2681V15.086C214.51 15.094 214.508 15.102 214.506 15.1095C214.503 15.117 214.499 15.1238 214.493 15.1295C214.488 15.1353 214.481 15.1398 214.474 15.1427C214.466 15.1457 214.458 15.1471 214.45 15.1468H214.178C214.17 15.147 214.162 15.1457 214.154 15.1428C214.147 15.14 214.14 15.1356 214.134 15.13C214.128 15.1244 214.124 15.1175 214.121 15.1099C214.118 15.1023 214.117 15.0942 214.117 15.086V13.7142L213.667 14.7111C213.66 14.73 213.649 14.7466 213.634 14.7593C213.616 14.7689 213.597 14.7732 213.577 14.7719H213.355C213.336 14.7729 213.317 14.7686 213.301 14.7593C213.285 14.7472 213.273 14.7303 213.267 14.7111L212.819 13.7142V15.086C212.819 15.094 212.818 15.1019 212.815 15.1093C212.813 15.1168 212.808 15.1236 212.803 15.1293C212.797 15.135 212.791 15.1395 212.783 15.1425C212.776 15.1455 212.768 15.147 212.76 15.1468H212.482C212.474 15.1467 212.466 15.145 212.459 15.1419C212.452 15.1387 212.446 15.1342 212.44 15.1285C212.435 15.1228 212.431 15.1161 212.428 15.1088C212.426 15.1015 212.425 15.0938 212.425 15.086V13.2681C212.425 13.2602 212.426 13.2522 212.429 13.2448C212.432 13.2374 212.437 13.2307 212.442 13.2252C212.448 13.2197 212.455 13.2154 212.462 13.2127C212.47 13.21 212.478 13.2089 212.486 13.2095H212.957C212.976 13.209 212.995 13.2133 213.012 13.222C213.023 13.2335 213.031 13.2481 213.035 13.2639Z" fill="white"/>
</svg>