<svg width="109" height="22" viewBox="0 0 109 22" fill="none" xmlns="http://www.w3.org/2000/svg">
<path d="M22.1641 1.00544C19.5964 -0.598844 16.2161 -0.216622 13.2012 1.67774C10.1958 -0.216622 6.8134 -0.598844 4.24885 1.00544C0.192056 3.54068 -0.301168 10.0699 3.14826 15.5896C5.69082 19.6589 9.66698 22.0434 13.2065 21.9994C16.746 22.0434 20.7221 19.6589 23.2647 15.5896C26.7099 10.0699 26.2209 3.54068 22.1641 1.00544ZM5.01329 14.4241C4.30203 13.2965 3.76539 12.0679 3.42157 10.7799C3.1161 9.66178 2.99931 8.50057 3.076 7.34405C3.22994 5.30414 4.06036 3.71556 5.41332 2.87048C6.76628 2.0254 8.55487 1.97409 10.4597 2.73016C10.7456 2.8443 11.0283 2.97624 11.309 3.1218C10.2505 4.08697 9.33005 5.19343 8.57372 6.40996C6.47935 9.76095 5.84057 13.49 6.57151 16.4629C5.98868 15.8342 5.46693 15.1515 5.01329 14.4241ZM22.9924 10.7788C22.6481 12.0667 22.1115 13.2953 21.4007 14.423C20.9467 15.1515 20.4249 15.8356 19.8425 16.4661C20.4959 13.801 20.0519 10.5359 18.4497 7.4739C18.4241 7.42347 18.3882 7.37897 18.3444 7.34328C18.3005 7.30759 18.2497 7.2815 18.1951 7.26669C18.1405 7.25189 18.0834 7.2487 18.0275 7.25734C17.9716 7.26597 17.9182 7.28624 17.8706 7.31683L12.8756 10.4374C12.83 10.4659 12.7905 10.503 12.7593 10.5467C12.7281 10.5904 12.7058 10.6399 12.6938 10.6922C12.6817 10.7445 12.6801 10.7987 12.689 10.8517C12.6979 10.9046 12.7172 10.9553 12.7457 11.0008L13.4787 12.1726C13.5071 12.2181 13.5441 12.2576 13.5877 12.2888C13.6313 12.32 13.6807 12.3422 13.7329 12.3543C13.7852 12.3664 13.8393 12.368 13.8922 12.3591C13.9451 12.3502 13.9957 12.331 14.0411 12.3025L17.279 10.2793C17.3837 10.5935 17.4884 10.9076 17.5669 11.2218C17.8724 12.3384 17.9895 13.4982 17.9136 14.6534C17.7596 16.6923 16.9292 18.2808 15.5762 19.127C14.8784 19.5536 14.0788 19.7851 13.2609 19.7972H13.1572C12.3394 19.7854 11.5397 19.5539 10.8419 19.127C9.48791 18.2808 8.6575 16.6923 8.50356 14.6534C8.42734 13.4969 8.54413 12.3358 8.84913 11.2176C9.55094 8.63065 11.0017 6.30883 13.019 4.54388C13.889 3.78026 14.8799 3.16662 15.9511 2.72806C17.8507 1.97199 19.6425 2.02226 20.9965 2.86838C22.3505 3.71451 23.1799 5.30204 23.3338 7.34196C23.4115 8.49858 23.2961 9.66007 22.9924 10.7788ZM48.7762 8.34202C46.1498 8.34202 44.0272 10.3924 44.0272 13.0009C44.0272 15.5917 46.1498 17.6086 48.7762 17.6086C51.4203 17.6086 53.543 15.5948 53.543 13.0009C53.543 10.3935 51.4235 8.34307 48.7762 8.34307V8.34202ZM48.7762 15.1728C47.5656 15.1728 46.6441 14.1937 46.6441 12.9831C46.6441 11.7726 47.5656 10.7788 48.7762 10.7788C50.0045 10.7788 50.9261 11.7757 50.9261 12.9863C50.9261 14.1968 50.0045 15.177 48.7762 15.177V15.1728ZM59.4648 4.76379H54.632C54.5798 4.76279 54.528 4.77235 54.4795 4.7919C54.4311 4.81146 54.3872 4.84059 54.3503 4.87756C54.3134 4.91454 54.2844 4.95858 54.265 5.00705C54.2455 5.05552 54.2361 5.10742 54.2373 5.15962V16.9415C54.2335 16.9954 54.2409 17.0496 54.2591 17.1005C54.2773 17.1514 54.3059 17.198 54.3429 17.2374C54.38 17.2767 54.4249 17.308 54.4746 17.3291C54.5244 17.3503 54.578 17.3609 54.632 17.3604H59.4648C63.3321 17.3604 66.0191 14.7885 66.0191 11.0469C66.0191 7.28227 63.3321 4.76379 59.4648 4.76379ZM59.5789 14.8723H56.9348V7.24562H59.5789C61.7194 7.24562 63.1949 8.84676 63.1949 11.0417C63.1949 13.1999 61.7194 14.8723 59.5789 14.8723ZM75.6386 8.59544H73.8217C73.7211 8.60339 73.6271 8.64819 73.5575 8.72123C73.4879 8.79428 73.4478 8.89044 73.4447 8.99127V9.53057C73.0311 8.84676 72.0959 8.34307 70.9315 8.34307C68.6654 8.34307 66.5427 10.1233 66.5427 12.9664C66.5427 15.7938 68.6465 17.6065 70.9137 17.6065C72.0823 17.6065 73.0363 17.1038 73.45 16.42V16.9771C73.4505 17.077 73.4904 17.1727 73.5609 17.2434C73.6315 17.3142 73.727 17.3543 73.8269 17.3551H75.6438C75.6938 17.3563 75.7434 17.3473 75.7898 17.3287C75.8362 17.3101 75.8783 17.2823 75.9137 17.247C75.949 17.2116 75.9768 17.1695 75.9954 17.1231C76.014 17.0767 76.023 17.0271 76.0218 16.9771V8.99127C76.0234 8.93993 76.0146 8.8888 75.9961 8.84091C75.9775 8.79301 75.9495 8.74932 75.9138 8.71242C75.8781 8.67552 75.8353 8.64615 75.788 8.62606C75.7408 8.60597 75.6899 8.59556 75.6386 8.59544ZM71.4121 15.1927C70.2089 15.1927 69.3052 14.268 69.3052 12.9852C69.3052 11.7024 70.2089 10.7788 71.4121 10.7788C72.6153 10.7788 73.5191 11.7014 73.5191 12.9842C73.5191 14.267 72.6164 15.1917 71.4121 15.1917V15.1927ZM85.8371 4.76379H84.0202C83.9694 4.76226 83.9187 4.77086 83.8712 4.78911C83.8237 4.80735 83.7804 4.83487 83.7436 4.87006C83.7069 4.90525 83.6775 4.9474 83.6572 4.99406C83.6369 5.04072 83.6261 5.09095 83.6255 5.14182V9.49497C83.2066 8.84676 82.2578 8.34307 81.0714 8.34307C78.822 8.34307 76.736 10.1233 76.736 12.9664C76.736 15.7938 78.8398 17.6065 81.107 17.6065C82.2756 17.6065 83.1574 17.1038 83.6432 16.42V16.9771C83.6435 17.0771 83.6833 17.1729 83.7539 17.2437C83.8245 17.3145 83.9202 17.3546 84.0202 17.3551H85.8371C85.8871 17.3564 85.9368 17.3475 85.9833 17.329C86.0297 17.3105 86.0719 17.2827 86.1073 17.2473C86.1427 17.2119 86.1705 17.1697 86.189 17.1233C86.2075 17.0768 86.2164 17.0271 86.2151 16.9771V5.14392C86.2167 5.09375 86.208 5.04378 86.1896 4.99708C86.1712 4.95039 86.1435 4.90794 86.1081 4.87235C86.0727 4.83676 86.0304 4.80877 85.9838 4.7901C85.9372 4.77143 85.8873 4.76248 85.8371 4.76379ZM81.6107 15.2147C80.4127 15.2147 79.5163 14.2806 79.5163 12.9842C79.5163 11.6878 80.4158 10.7537 81.6107 10.7537C82.8055 10.7537 83.705 11.6878 83.705 12.9842C83.705 14.2806 82.8097 15.2147 81.6107 15.2147ZM96.0335 4.76379H94.2198C94.1689 4.76226 94.1182 4.77086 94.0707 4.78909C94.0231 4.80732 93.9797 4.83483 93.9428 4.87C93.906 4.90517 93.8765 4.94732 93.8561 4.99398C93.8357 5.04065 93.8248 5.0909 93.824 5.14182V9.49497C93.4103 8.84676 92.4564 8.34307 91.2699 8.34307C89.0205 8.34307 86.9345 10.1233 86.9345 12.9664C86.9345 15.7938 89.0394 17.6065 91.3055 17.6065C92.4752 17.6065 93.3559 17.1038 93.8418 16.42V16.9771C93.8423 17.0772 93.8823 17.173 93.9531 17.2438C94.0239 17.3146 94.1197 17.3546 94.2198 17.3551H96.0335C96.0835 17.3564 96.1332 17.3475 96.1796 17.329C96.226 17.3104 96.2681 17.2826 96.3034 17.2472C96.3387 17.2119 96.3664 17.1697 96.3848 17.1232C96.4032 17.0768 96.412 17.0271 96.4105 16.9771V5.14392C96.4123 5.0938 96.4037 5.04385 96.3854 4.99716C96.3671 4.95046 96.3395 4.90801 96.3042 4.8724C96.2689 4.83679 96.2266 4.80879 96.1801 4.79011C96.1335 4.77143 96.0837 4.76247 96.0335 4.76379ZM91.8071 15.2147C90.6081 15.2147 89.7127 14.2806 89.7127 12.9842C89.7127 11.6878 90.6123 10.7537 91.8071 10.7537C93.0019 10.7537 93.9015 11.6878 93.9015 12.9842C93.9015 14.2806 93.0082 15.2147 91.8102 15.2147H91.8071ZM105.982 9.20804L103.271 18.506C102.747 20.1605 101.579 21.1501 99.7626 21.1501C98.9363 21.1501 98.1845 20.9815 97.5949 20.6443C97.2514 20.4485 96.9666 20.2695 96.9666 19.9825C96.9666 19.8045 97.0242 19.7124 97.1289 19.5458L97.6671 18.7395C97.819 18.5144 97.931 18.4411 98.0944 18.4411C98.2239 18.4443 98.3491 18.4878 98.4525 18.5657C98.7908 18.7845 99.1049 18.973 99.5835 18.973C100.143 18.973 100.57 18.794 100.8 18.128L101.033 17.3562H99.9353C99.823 17.3598 99.7129 17.324 99.6241 17.2549C99.5354 17.1859 99.4736 17.088 99.4495 16.9782L97.0231 9.20804C96.9331 8.90226 97.0158 8.59649 97.465 8.59649H99.3762C99.6097 8.59649 99.773 8.67607 99.8757 9.01012L101.667 15.2671L103.343 9.01012C103.396 8.7944 103.541 8.59649 103.829 8.59649H105.641C105.999 8.59544 106.106 8.84676 105.982 9.20804ZM43.3423 11.9737V16.9405C43.3432 16.9946 43.3332 17.0484 43.3128 17.0985C43.2925 17.1487 43.2623 17.1943 43.224 17.2326C43.1857 17.2709 43.1401 17.3011 43.0899 17.3214C43.0398 17.3418 42.986 17.3518 42.9319 17.3509H41.4323C41.3781 17.3519 41.3243 17.342 41.274 17.3217C41.2238 17.3015 41.1781 17.2712 41.1398 17.2329C41.1015 17.1946 41.0713 17.149 41.051 17.0987C41.0307 17.0485 41.0208 16.9946 41.0218 16.9405V15.6367C40.0699 16.8389 38.4143 17.596 36.5419 17.596C33.0255 17.596 30.2777 14.9508 30.2777 11.1851C30.2777 7.2718 33.2443 4.57425 36.9922 4.57425C39.7589 4.57425 41.9705 5.76385 42.9528 8.15667C42.9803 8.21989 42.9956 8.28776 42.9978 8.35668C42.9978 8.46978 42.9235 8.55564 42.6837 8.63837L40.9328 9.31276C40.8272 9.35655 40.7088 9.35842 40.6019 9.318C40.5081 9.26263 40.4347 9.17855 40.3924 9.07819C39.7641 7.88335 38.6457 7.07178 36.9242 7.07178C34.6916 7.07178 33.0925 8.81535 33.0925 11.0762C33.0925 13.268 34.4538 15.0702 36.988 15.0702C38.3211 15.0702 39.384 14.4419 39.8793 13.7518H38.2981C38.2439 13.7526 38.1902 13.7426 38.14 13.7223C38.0898 13.7019 38.0442 13.6717 38.0059 13.6334C37.9676 13.5951 37.9374 13.5496 37.9171 13.4994C37.8968 13.4492 37.8867 13.3954 37.8876 13.3413V11.9915C37.8867 11.9373 37.8968 11.8836 37.9171 11.8334C37.9374 11.7832 37.9676 11.7376 38.0059 11.6993C38.0442 11.661 38.0898 11.6308 38.14 11.6105C38.1902 11.5902 38.2439 11.5801 38.2981 11.581H42.9319C42.985 11.5783 43.0381 11.5864 43.0879 11.605C43.1378 11.6235 43.1833 11.652 43.2218 11.6888C43.2602 11.7256 43.2907 11.7698 43.3115 11.8188C43.3322 11.8678 43.3427 11.9205 43.3423 11.9737ZM106.031 6.75658V6.63616C106.031 6.62771 106.034 6.61951 106.039 6.61312C106.045 6.60776 106.053 6.60478 106.061 6.60474H106.827C106.831 6.6046 106.835 6.60527 106.839 6.60671C106.842 6.60815 106.846 6.61033 106.849 6.61312C106.854 6.61951 106.857 6.62771 106.857 6.63616V6.75658C106.857 6.76468 106.854 6.77249 106.849 6.77857C106.846 6.78136 106.842 6.78354 106.839 6.78498C106.835 6.78642 106.831 6.78709 106.827 6.78695H106.547V7.54197C106.547 7.55022 106.544 7.55806 106.538 7.56389C106.532 7.56973 106.524 7.57312 106.516 7.57339H106.371C106.367 7.57337 106.363 7.57252 106.36 7.5709C106.356 7.56927 106.353 7.56691 106.35 7.56396C106.347 7.56112 106.345 7.55771 106.343 7.55393C106.342 7.55015 106.341 7.54608 106.341 7.54197V6.78695H106.061C106.057 6.78726 106.053 6.78669 106.049 6.78528C106.046 6.78386 106.042 6.78164 106.039 6.77875C106.036 6.77587 106.034 6.77239 106.033 6.76857C106.031 6.76474 106.031 6.76065 106.031 6.75658ZM107.369 6.63197L107.579 7.11681L107.788 6.63197C107.791 6.62338 107.797 6.61604 107.805 6.61102C107.814 6.60651 107.823 6.60434 107.833 6.60474H108.076C108.08 6.60444 108.084 6.60499 108.088 6.60634C108.092 6.60769 108.095 6.60983 108.098 6.61259C108.101 6.61536 108.103 6.61871 108.105 6.62241C108.106 6.62611 108.107 6.63008 108.107 6.63406V7.54302C108.107 7.54699 108.106 7.55099 108.105 7.55474C108.104 7.55848 108.101 7.56191 108.099 7.56477C108.096 7.56764 108.093 7.56989 108.089 7.57137C108.085 7.57286 108.081 7.57354 108.077 7.57339H107.941C107.937 7.57352 107.933 7.57285 107.929 7.57141C107.925 7.56998 107.922 7.5678 107.919 7.56501C107.916 7.5622 107.914 7.55877 107.912 7.55496C107.911 7.55116 107.91 7.54708 107.911 7.54302V6.85711L107.686 7.35557C107.682 7.36498 107.676 7.37331 107.669 7.37966C107.66 7.38443 107.65 7.38661 107.641 7.38594H107.53C107.52 7.38646 107.511 7.38428 107.502 7.37966C107.494 7.37361 107.488 7.36517 107.486 7.35557L107.261 6.85711V7.54302C107.262 7.54698 107.261 7.55094 107.26 7.55466C107.258 7.55838 107.256 7.56178 107.253 7.56463C107.251 7.56748 107.247 7.56974 107.244 7.57124C107.24 7.57275 107.236 7.57348 107.232 7.57339H107.093C107.089 7.57334 107.085 7.5725 107.082 7.57093C107.078 7.56936 107.075 7.56709 107.072 7.56425C107.07 7.56141 107.068 7.55806 107.066 7.55441C107.065 7.55077 107.064 7.54689 107.065 7.54302V6.63406C107.064 6.63008 107.065 6.62611 107.067 6.62241C107.068 6.61871 107.07 6.61536 107.073 6.61259C107.076 6.60983 107.079 6.60769 107.083 6.60634C107.087 6.60499 107.091 6.60444 107.095 6.60474H107.331C107.34 6.60448 107.349 6.60664 107.358 6.61102C107.364 6.61677 107.368 6.62404 107.369 6.63197Z" fill="black"/>
</svg>
