<svg width="24" height="24" viewBox="0 0 24 24" fill="none" xmlns="http://www.w3.org/2000/svg">
    <path d="M14.74 5.54993L18.45 9.25993" stroke="white" stroke-width="1.5" stroke-linecap="round" stroke-linejoin="round"></path>
    <path d="M11.1602 9.13992L9.46016 7.43992C9.67297 6.84794 9.7132 6.20768 9.57619 5.59371C9.43917 4.97975 9.13055 4.41734 8.68625 3.972C8.24196 3.52666 7.68028 3.21671 7.06664 3.07824C6.453 2.93978 5.81265 2.97851 5.22016 3.18992L6.84016 4.81992L4.84016 6.81992L3.19016 5.21992C2.97876 5.8124 2.94003 6.45275 3.07849 7.0664C3.21695 7.68004 3.5269 8.24171 3.97224 8.68601C4.41759 9.1303 4.97999 9.43893 5.59396 9.57594C6.20792 9.71296 6.84818 9.67272 7.44016 9.45992L9.14016 11.1599" stroke="white" stroke-width="1.5" stroke-linecap="round" stroke-linejoin="round"></path>
    <path fill-rule="evenodd" clip-rule="evenodd" d="M11.2101 9.08994L16.5301 3.76994C16.7719 3.52504 17.06 3.33059 17.3776 3.19788C17.6951 3.06516 18.0359 2.99683 18.3801 2.99683C18.7243 2.99683 19.065 3.06516 19.3826 3.19788C19.7002 3.33059 19.9882 3.52504 20.2301 3.76994C20.475 4.01179 20.6694 4.29985 20.8021 4.61742C20.9349 4.93499 21.0032 5.27576 21.0032 5.61994C21.0032 5.96413 20.9349 6.30489 20.8021 6.62247C20.6694 6.94004 20.475 7.2281 20.2301 7.46994L7.83007 19.8699C7.46668 20.2402 6.99938 20.4913 6.49007 20.5899L4.57007 20.9999C4.35338 21.0526 4.12679 21.0485 3.9121 20.9883C3.6974 20.928 3.50182 20.8136 3.34414 20.6559C3.18646 20.4982 3.07199 20.3026 3.01174 20.0879C2.95148 19.8732 2.94747 19.6466 3.00007 19.4299L3.38007 17.5099C3.47876 17.0006 3.72985 16.5333 4.10007 16.1699L11.2101 9.08994Z" stroke="white" stroke-width="1.5" stroke-linecap="round" stroke-linejoin="round"></path>
    <path d="M12.8401 14.86L14.5401 16.56C14.3273 17.152 14.287 17.7922 14.4241 18.4062C14.5611 19.0202 14.8697 19.5826 15.314 20.0279C15.7583 20.4732 16.32 20.7832 16.9336 20.9217C17.5473 21.0601 18.1876 21.0214 18.7801 20.81L17.1601 19.18L19.1601 17.18L20.7901 18.8C21.0015 18.2075 21.0402 17.5672 20.9018 16.9535C20.7633 16.3399 20.4534 15.7782 20.008 15.3339C19.5627 14.8896 19.0003 14.581 18.3863 14.444C17.7723 14.3069 17.1321 14.3472 16.5401 14.56L14.8401 12.86" stroke="white" stroke-width="1.5" stroke-linecap="round" stroke-linejoin="round"></path>
</svg>