<svg xmlns="http://www.w3.org/2000/svg" aria-hidden="true" viewBox="0 0 14 14" role="img"><path fill-rule="evenodd" d="M12.6 4.13v.35c0 3.78-2.87 8.19-8.19 8.19-1.61 0-3.15-.49-4.41-1.26.21 0 .49.07.7.07 1.33 0 2.59-.49 3.57-1.26-1.26 0-2.31-.84-2.66-1.96.21 0 .35.07.56.07.28 0 .56 0 .77-.07C1.61 7.98.7 6.86.7 5.46v-.07c0 .21.77.35 1.26.35C1.19 5.25.63 4.34.63 3.36c0-.56.14-1.05.42-1.47C2.45 3.64 4.55 4.76 7 4.9c-.14-.28-.21-.49-.21-.7 0-1.61 1.26-2.87 2.87-2.87.84 0 1.54.35 2.1.91.63-.14 1.26-.35 1.82-.7-.21.7-.7 1.26-1.26 1.61.56-.07 1.12-.21 1.68-.42-.42.49-.84.98-1.4 1.4z"></path></svg>