<svg width="342" height="220" viewBox="0 0 342 220" fill="none" xmlns="http://www.w3.org/2000/svg">
<rect x="0.333496" width="341.333" height="220" rx="8" fill="#DEBE1A"/>
<path d="M170.576 35.0677L169.783 21.2462C169.783 20.5665 170.236 20 170.916 20C171.595 20 172.162 20.4532 172.162 21.1329V21.2462L171.369 35.0677C171.369 35.2943 171.142 35.5208 170.916 35.4075C170.689 35.4075 170.576 35.181 170.576 35.0677Z" fill="#14A800"/>
<path d="M182.245 39.4856L191.422 29.1762C191.875 28.723 192.555 28.6097 193.121 29.0629C193.574 29.5161 193.688 30.1958 193.234 30.7623L193.121 30.8755L182.812 40.0521C182.585 40.1654 182.358 40.1654 182.245 40.0521C182.132 39.9388 182.132 39.7122 182.245 39.4856Z" fill="#14A800"/>
<path d="M159.02 40.1654L148.711 30.9888C148.257 30.5357 148.144 29.8559 148.597 29.2895C149.05 28.8363 149.73 28.723 150.297 29.1762L150.41 29.2895L159.587 39.5989C159.7 39.8255 159.7 40.0521 159.587 40.1654C159.473 40.2787 159.247 40.2787 159.02 40.1654Z" fill="#14A800"/>
<path d="M251.578 125.929C248.293 120.831 241.835 118.792 236.171 120.831H236.058C233.339 121.851 231.073 123.776 229.487 126.156L225.295 132.953L224.049 101.911C223.709 92.2816 224.275 82.6519 225.861 73.2488C226.428 69.6235 224.502 65.9982 221.103 64.5254C218.724 63.5058 216.118 63.7324 214.079 64.8653C214.759 62.5994 215.552 60.2203 216.458 58.0678C218.384 53.083 215.439 47.5318 210.227 46.3989C206.602 45.6058 202.863 47.1919 200.937 50.364C200.598 50.0242 200.258 49.7976 199.805 49.571C195.5 46.9653 189.722 48.6647 187.682 53.3096C185.417 58.2944 183.717 63.5058 182.584 68.8304C179.186 68.0374 175.56 69.7368 174.088 73.0222C169.443 83.5582 166.837 94.8873 166.384 106.33L166.044 115.506C165.364 133.18 166.95 150.853 170.915 168.073C171.595 170.905 172.275 173.738 173.068 176.57C174.994 181.555 178.053 186.086 182.131 189.485C190.175 196.396 200.711 198.548 210.341 196.169C213.513 195.376 216.572 194.13 219.517 192.431C219.744 192.317 219.97 192.091 220.197 191.978C220.537 191.751 220.877 191.524 221.103 191.298C221.443 191.071 221.896 190.731 222.236 190.505C222.576 190.278 222.916 189.938 223.256 189.712C223.482 189.598 223.596 189.485 223.822 189.259C225.975 187.446 228.014 185.407 229.94 183.254C237.191 174.757 241.949 164.335 243.761 153.232L244.668 147.907C245.461 143.262 247.5 138.844 250.672 135.332C253.165 132.726 253.504 128.875 251.578 125.929Z" fill="url(#paint0_radial_1814_58378)"/>
<path d="M184.284 69.5105C180.545 67.5846 175.787 69.1707 174.088 73.1358C169.443 83.6719 166.837 95.001 166.384 106.443L166.044 115.62C165.704 123.324 165.818 131.027 166.384 138.731L185.87 118.339L186.437 92.3953C186.55 87.4105 187.116 82.4257 188.023 77.4409C188.816 74.2688 187.23 70.9833 184.284 69.5105Z" fill="url(#paint1_radial_1814_58378)"/>
<path d="M199.806 49.5722C195.501 46.9665 189.723 48.6658 187.684 53.3107C183.378 63.0538 180.999 73.4765 180.773 84.1258L179.866 125.59L199.466 119.926L200.485 76.6486C200.599 70.7575 201.618 64.9797 203.544 59.4284C204.677 55.8031 203.204 51.7247 199.806 49.5722Z" fill="url(#paint2_radial_1814_58378)"/>
<path d="M204.79 101.686C204.903 90.6965 206.716 79.8206 210.228 69.5111C210.908 67.4719 212.267 65.9991 214.08 64.9795C214.76 62.7137 215.553 60.3346 216.459 58.1821C218.385 53.1973 215.439 47.646 210.228 46.5131C206.149 45.6068 202.071 47.7593 200.372 51.4979C194.934 64.0732 191.875 77.5548 191.648 91.3763L190.855 127.516L204.45 125.25L204.79 101.686Z" fill="url(#paint3_radial_1814_58378)"/>
<path d="M172.162 120.039C185.19 116.866 198.672 116.64 211.813 119.246L212.72 119.472L214.872 142.81H172.162V120.039V120.039Z" fill="#F7B0B2"/>
<path d="M217.025 143.488C218.498 142.922 219.857 141.902 220.651 140.543L225.182 133.179L223.936 102.137C223.596 92.5075 224.163 82.8778 225.749 73.4746C226.315 69.8493 224.389 66.224 220.99 64.7512C218.611 63.7316 216.006 63.9582 213.966 65.0911C212.267 65.9974 210.794 67.5835 210.114 69.6227C206.602 80.0455 204.677 90.9214 204.677 101.797L204.563 125.362L205.13 150.172C208.755 147.114 212.72 144.961 217.025 143.488Z" fill="url(#paint4_radial_1814_58378)"/>
<path d="M217.025 143.489C218.498 142.922 219.857 141.902 220.65 140.543L225.182 133.179L223.936 102.137C223.596 92.5077 224.162 82.878 225.748 73.4749C226.315 69.8495 224.389 66.2242 220.99 64.7515C218.611 63.7318 216.005 63.9584 213.966 65.0913C214.646 62.8255 215.439 60.4464 216.345 58.2939C218.271 53.3091 215.326 47.7579 210.114 46.6249C206.489 45.8319 202.75 47.418 200.824 50.5901C200.485 50.2502 200.145 50.0237 199.692 49.7971C195.386 47.1914 189.609 48.8908 187.569 53.5357C185.304 58.5205 183.604 63.7318 182.471 69.0565C179.073 68.2635 175.447 69.9628 173.975 73.2483C169.33 83.7843 166.724 95.1134 166.271 106.556L165.931 115.732C165.251 133.406 166.837 151.079 170.802 168.299C171.595 171.698 172.502 175.097 173.408 178.382L190.742 170.452L193.8 164.107C198.672 154.364 206.942 147.001 217.025 143.489Z" fill="url(#paint5_radial_1814_58378)"/>
<path d="M173.181 176.682C174.2 179.288 175.447 181.667 177.033 183.82C180.998 170.338 182.81 156.177 182.244 142.129C181.904 133.745 180.771 125.475 178.845 117.318L177.033 109.727C175.22 102.25 172.614 94.9996 169.102 88.0889C167.629 94.0933 166.723 100.211 166.497 106.329L166.157 115.505C165.477 133.179 167.063 150.852 171.028 168.072C171.595 171.018 172.388 173.85 173.181 176.682Z" fill="#C17078"/>
<path opacity="0.5" d="M249.314 137.144C248.86 135.105 247.161 133.179 244.782 132.272C241.157 130.913 237.305 132.159 236.172 135.105C235.039 138.05 236.965 141.676 240.59 143.035C242.516 143.828 244.442 143.828 246.028 143.148C246.821 141.109 247.954 139.07 249.314 137.144Z" fill="url(#paint6_radial_1814_58378)"/>
<path opacity="0.5" d="M236.964 135.671C238.097 132.726 241.949 131.366 245.574 132.839C245.914 132.952 246.141 133.065 246.367 133.179C245.801 132.839 245.234 132.499 244.668 132.272C241.042 130.913 237.191 132.159 236.058 135.105C235.038 137.824 236.511 141.109 239.57 142.695C237.191 140.996 236.058 138.164 236.964 135.671Z" fill="url(#paint7_linear_1814_58378)"/>
<path d="M91.7251 117.092C95.5769 119.358 98.2959 123.096 99.2022 127.402C102.714 144.508 108.605 161.049 116.649 176.57L118.122 179.402C123.107 188.465 130.924 195.263 140.327 198.548C152.336 202.853 165.477 197.302 170.802 185.633C175.9 171.925 178.732 157.537 179.072 142.922C179.299 134.539 178.619 126.155 177.26 117.998L175.9 110.295C174.201 100.438 170.915 90.9219 166.27 82.0852C164.798 79.3662 161.739 77.8935 158.68 78.5732C158.793 71.4359 156.414 64.5252 151.996 58.8606L151.089 57.7277C149.73 56.0284 147.804 55.122 145.765 54.8954C144.858 53.0828 143.839 51.2701 142.593 49.6841C139.874 46.0588 135.002 44.9259 130.924 46.8518C128.658 47.9847 126.958 49.9107 126.165 52.2898C123.56 49.7974 119.708 49.1176 116.309 50.5904C112.344 52.403 110.305 56.9347 111.551 61.1264C115.176 73.022 116.989 85.4839 116.989 97.9459V122.53C116.989 122.53 111.891 114.373 108.492 109.275C106.679 106.443 103.621 104.743 100.222 104.517H99.9953C95.2371 104.177 90.932 107.122 89.4592 111.654C89.0061 113.807 89.7991 116.072 91.7251 117.092Z" fill="url(#paint8_radial_1814_58378)"/>
<path d="M127.412 53.6492C125.033 50.0239 120.275 48.7777 116.423 50.5904C112.458 52.403 110.418 56.9346 111.665 61.1264C115.29 73.0219 117.103 85.4839 117.103 97.9459V136.465L131.264 117.998L132.284 70.5295C132.51 64.6384 130.811 58.7473 127.412 53.6492Z" fill="url(#paint9_radial_1814_58378)"/>
<path d="M127.412 53.6492C125.033 50.0239 120.275 48.7777 116.423 50.5904C112.458 52.403 110.418 56.9346 111.665 61.1264C115.29 73.0219 117.103 85.4839 117.103 97.9459V136.465L131.264 117.998L132.284 70.5295C132.51 64.6384 130.811 58.7473 127.412 53.6492Z" fill="url(#paint10_radial_1814_58378)"/>
<path opacity="0.3" d="M119.255 63.3913C118.462 59.9926 115.63 57.84 113.137 58.5198C112.457 58.6331 111.891 58.9729 111.438 59.5394C111.438 60.1058 111.551 60.7856 111.778 61.352C112.684 64.5242 113.59 67.6963 114.27 70.8685C114.95 70.9818 115.516 71.095 116.196 70.8685C118.688 70.0754 120.048 66.79 119.255 63.3913Z" fill="url(#paint11_radial_1814_58378)"/>
<path d="M147.917 61.4663C147.011 57.1613 145.198 53.0828 142.593 49.6841C139.874 46.0588 135.002 44.9259 130.924 46.8518C126.958 48.7777 124.919 53.1961 125.939 57.5011C128.771 69.2834 130.131 81.4055 129.904 93.4143L129.338 120.604L148.824 119.924L149.73 81.4055C149.843 74.7213 149.277 68.0372 147.917 61.4663Z" fill="url(#paint12_radial_1814_58378)"/>
<path d="M147.917 61.4663C147.011 57.1613 145.198 53.0828 142.593 49.6841C139.874 46.0588 135.002 44.9259 130.924 46.8518C126.958 48.7777 124.919 53.1961 125.939 57.5011C128.771 69.2834 130.131 81.4055 129.904 93.4143L129.338 120.604L148.824 119.924L149.73 81.4055C149.843 74.7213 149.277 68.0372 147.917 61.4663Z" fill="url(#paint13_radial_1814_58378)"/>
<path d="M140.668 122.301L156.642 120.262L156.982 106.101C157.095 99.8697 155.962 93.6387 153.696 87.8609C152.223 84.2356 154.036 80.1571 157.775 78.7976C158.114 78.6843 158.454 78.571 158.794 78.4577C158.907 71.3204 156.528 64.4097 152.11 58.7451L151.204 57.6122C149.391 55.3464 146.332 54.3268 143.5 55.0065C139.421 56.1394 137.042 60.4445 138.402 64.523C140.554 70.754 141.574 77.3248 141.461 83.8957L140.668 122.301Z" fill="url(#paint14_radial_1814_58378)"/>
<path d="M140.668 122.301L156.642 120.262L156.982 106.101C157.095 99.8697 155.962 93.6387 153.696 87.8609C152.223 84.2356 154.036 80.1571 157.775 78.7976C158.114 78.6843 158.454 78.571 158.794 78.4577C158.907 71.3204 156.528 64.4097 152.11 58.7451L151.204 57.6122C149.391 55.3464 146.332 54.3268 143.5 55.0065C139.421 56.1394 137.042 60.4445 138.402 64.523C140.554 70.754 141.574 77.3248 141.461 83.8957L140.668 122.301Z" fill="url(#paint15_radial_1814_58378)"/>
<path opacity="0.3" d="M128.205 67.9243C128.885 68.2642 129.678 68.3775 130.471 68.2642C133.303 67.811 135.116 64.5256 134.663 60.787C134.096 57.0484 131.491 54.4427 128.658 54.8959C127.526 55.0092 126.619 55.6889 125.939 56.5953C125.939 56.9351 126.053 57.275 126.166 57.6149C126.846 61.0136 127.526 64.4123 128.205 67.9243Z" fill="url(#paint16_radial_1814_58378)"/>
<path opacity="0.3" d="M140.781 75.1724C141.348 75.399 142.027 75.399 142.707 75.2857C145.539 74.7192 147.126 71.3205 146.446 67.6952C145.766 64.0699 142.934 61.5775 140.215 62.0307C139.308 62.2573 138.629 62.5971 137.949 63.2769C138.062 63.73 138.062 64.1832 138.289 64.6364C139.535 68.0351 140.328 71.6604 140.781 75.1724Z" fill="url(#paint17_radial_1814_58378)"/>
<path opacity="0.3" d="M154.942 84.9157C154.262 85.029 153.696 85.3689 153.243 85.9354C153.356 86.5018 153.469 87.1816 153.696 87.748C154.829 90.5803 155.622 93.5258 156.188 96.4714C156.528 96.4714 156.868 96.4714 157.095 96.3581C159.36 95.7917 160.72 92.8461 160.153 89.674C159.587 86.6151 157.208 84.4626 154.942 84.9157Z" fill="url(#paint18_radial_1814_58378)"/>
<path d="M99.2029 127.4C102.715 144.507 108.606 161.047 116.65 176.568L118.122 179.401C118.915 180.76 119.708 182.12 120.615 183.479L118.009 149.039C117.443 140.768 117.103 132.498 117.103 124.115V122.642C117.103 122.642 112.005 114.485 108.606 109.387C106.793 106.555 103.734 104.855 100.336 104.629H100.109C95.351 104.289 91.0459 107.234 89.5731 111.766C88.8934 113.805 89.6864 116.071 91.6124 117.204C95.5776 119.356 98.2965 123.095 99.2029 127.4Z" fill="url(#paint19_radial_1814_58378)"/>
<path opacity="0.3" d="M119.256 63.3913C118.462 59.9926 115.63 57.84 113.138 58.5198C112.571 58.6331 112.118 58.8596 111.665 59.1995C111.892 59.0862 112.118 59.0862 112.231 58.9729C114.837 58.2932 117.556 60.559 118.349 63.8444C119.029 66.5634 118.236 69.1691 116.65 70.4153C118.916 69.509 119.935 66.4501 119.256 63.3913Z" fill="url(#paint20_linear_1814_58378)"/>
<path opacity="0.3" d="M134.55 60.787C133.984 57.0484 131.378 54.4427 128.546 54.8959C127.866 55.0092 127.186 55.3491 126.62 55.6889C126.96 55.5756 127.3 55.3491 127.753 55.3491C130.585 54.8959 133.191 57.6149 133.757 61.2402C134.097 63.9591 133.191 66.5648 131.491 67.811C133.757 66.7914 135.003 63.9592 134.55 60.787Z" fill="url(#paint21_linear_1814_58378)"/>
<path opacity="0.3" d="M146.559 67.6952C145.879 64.0699 143.047 61.5775 140.328 62.0307C139.648 62.144 139.081 62.4838 138.628 62.8237C138.968 62.7104 139.195 62.5971 139.535 62.4838C142.367 61.9174 145.086 64.4098 145.766 68.1484C146.332 70.9807 145.426 73.5863 143.726 74.9458C145.879 73.9262 147.125 70.8674 146.559 67.6952Z" fill="url(#paint22_linear_1814_58378)"/>
<path opacity="0.3" d="M160.153 89.7862C159.586 86.6141 157.207 84.4616 154.828 85.028C154.375 85.1413 153.808 85.3679 153.469 85.7078C153.695 85.5945 153.808 85.5945 154.035 85.4812C156.301 84.9147 158.68 87.0673 159.36 90.2394C159.813 92.7318 159.133 95.1109 157.66 96.2438C159.586 95.4508 160.719 92.6185 160.153 89.7862Z" fill="url(#paint23_linear_1814_58378)"/>
<defs>
<radialGradient id="paint0_radial_1814_58378" cx="0" cy="0" r="1" gradientUnits="userSpaceOnUse" gradientTransform="translate(187.62 128.168) rotate(-64.1499) scale(101.425 64.966)">
<stop offset="0.6772" stop-color="#F7B0B2"/>
<stop offset="0.7973" stop-color="#E69B9F"/>
<stop offset="1" stop-color="#C17078"/>
</radialGradient>
<radialGradient id="paint1_radial_1814_58378" cx="0" cy="0" r="1" gradientUnits="userSpaceOnUse" gradientTransform="translate(184.192 98.0846) rotate(102.68) scale(34.5068 16.3413)">
<stop offset="0.4149" stop-color="#C17078"/>
<stop offset="1" stop-color="#A06069" stop-opacity="0"/>
</radialGradient>
<radialGradient id="paint2_radial_1814_58378" cx="0" cy="0" r="1" gradientUnits="userSpaceOnUse" gradientTransform="translate(200.229 87.0384) rotate(94.6801) scale(55.1735 20.4209)">
<stop offset="0.4275" stop-color="#C17078"/>
<stop offset="0.4456" stop-color="#C5747C"/>
<stop offset="0.5765" stop-color="#DB8E94"/>
<stop offset="0.7109" stop-color="#EAA1A5"/>
<stop offset="0.8498" stop-color="#F4ACAF"/>
<stop offset="1" stop-color="#F7B0B2"/>
</radialGradient>
<radialGradient id="paint3_radial_1814_58378" cx="0" cy="0" r="1" gradientUnits="userSpaceOnUse" gradientTransform="translate(217.022 89.1741) rotate(100.056) scale(47.5515 22.549)">
<stop offset="0.2862" stop-color="#C17078"/>
<stop offset="1" stop-color="#F7B0B2"/>
</radialGradient>
<radialGradient id="paint4_radial_1814_58378" cx="0" cy="0" r="1" gradientUnits="userSpaceOnUse" gradientTransform="translate(246.23 94.7223) rotate(97.9786) scale(63.3741 36.3488)">
<stop offset="0.4149" stop-color="#C17078"/>
<stop offset="1" stop-color="#C17078" stop-opacity="0"/>
</radialGradient>
<radialGradient id="paint5_radial_1814_58378" cx="0" cy="0" r="1" gradientUnits="userSpaceOnUse" gradientTransform="translate(237.539 158.185) rotate(60.7128) scale(40.2367 48.0657)">
<stop offset="0.4149" stop-color="#C17078"/>
<stop offset="1" stop-color="#C17078" stop-opacity="0"/>
</radialGradient>
<radialGradient id="paint6_radial_1814_58378" cx="0" cy="0" r="1" gradientUnits="userSpaceOnUse" gradientTransform="translate(233.474 131.102) scale(17.4297)">
<stop offset="0.426" stop-color="#E4EBE4"/>
<stop offset="1" stop-color="#D5E0D5" stop-opacity="0"/>
</radialGradient>
<linearGradient id="paint7_linear_1814_58378" x1="235.781" y1="137.208" x2="246.472" y2="137.208" gradientUnits="userSpaceOnUse">
<stop offset="0.426" stop-color="#A06069"/>
<stop offset="1" stop-color="#A06069" stop-opacity="0"/>
</linearGradient>
<radialGradient id="paint8_radial_1814_58378" cx="0" cy="0" r="1" gradientUnits="userSpaceOnUse" gradientTransform="translate(124.154 112.616) rotate(-101.741) scale(102.203 45.6682)">
<stop offset="0.6772" stop-color="#BC5118"/>
<stop offset="0.7771" stop-color="#A74716"/>
<stop offset="0.9821" stop-color="#722D11"/>
<stop offset="1" stop-color="#6D2B11"/>
</radialGradient>
<radialGradient id="paint9_radial_1814_58378" cx="0" cy="0" r="1" gradientUnits="userSpaceOnUse" gradientTransform="translate(120.138 93.5295) rotate(81.9639) scale(53.9989 21.8514)">
<stop offset="0.3392" stop-color="#BC5118"/>
<stop offset="0.6772" stop-color="#BC5118"/>
<stop offset="0.7771" stop-color="#A74716"/>
<stop offset="0.9821" stop-color="#722D11"/>
<stop offset="1" stop-color="#6D2B11"/>
</radialGradient>
<radialGradient id="paint10_radial_1814_58378" cx="0" cy="0" r="1" gradientUnits="userSpaceOnUse" gradientTransform="translate(145.211 85.5728) rotate(81.9639) scale(53.9989 21.8514)">
<stop offset="0.6772" stop-color="#6D2B11"/>
<stop offset="1" stop-color="#6D2B11" stop-opacity="0"/>
</radialGradient>
<radialGradient id="paint11_radial_1814_58378" cx="0" cy="0" r="1" gradientUnits="userSpaceOnUse" gradientTransform="translate(114.25 67.1169) rotate(71.1918) scale(10.7798 7.09233)">
<stop offset="0.426" stop-color="#E4EBE4"/>
<stop offset="1" stop-color="#D5E0D5" stop-opacity="0"/>
</radialGradient>
<radialGradient id="paint12_radial_1814_58378" cx="0" cy="0" r="1" gradientUnits="userSpaceOnUse" gradientTransform="translate(127.362 87.6674) rotate(-101.613) scale(58.8791 25.7216)">
<stop offset="0.0419305" stop-color="#BC5118"/>
<stop offset="0.6772" stop-color="#BC5118"/>
<stop offset="0.7771" stop-color="#A74716"/>
<stop offset="0.9821" stop-color="#722D11"/>
<stop offset="1" stop-color="#6D2B11"/>
</radialGradient>
<radialGradient id="paint13_radial_1814_58378" cx="0" cy="0" r="1" gradientUnits="userSpaceOnUse" gradientTransform="translate(163.075 100.897) rotate(-101.613) scale(58.8791 25.7216)">
<stop offset="0.6772" stop-color="#6D2B11"/>
<stop offset="1" stop-color="#6D2B11" stop-opacity="0"/>
</radialGradient>
<radialGradient id="paint14_radial_1814_58378" cx="0" cy="0" r="1" gradientUnits="userSpaceOnUse" gradientTransform="translate(146.141 97.8605) rotate(74.1278) scale(51.7659 22.4468)">
<stop offset="0.0419305" stop-color="#BC5118"/>
<stop offset="0.6772" stop-color="#BC5118"/>
<stop offset="0.7771" stop-color="#A74716"/>
<stop offset="0.9821" stop-color="#722D11"/>
<stop offset="1" stop-color="#6D2B11"/>
</radialGradient>
<radialGradient id="paint15_radial_1814_58378" cx="0" cy="0" r="1" gradientUnits="userSpaceOnUse" gradientTransform="translate(177.263 75.5166) rotate(105.598) scale(51.7661 22.4487)">
<stop offset="0.6772" stop-color="#6D2B11"/>
<stop offset="1" stop-color="#6D2B11" stop-opacity="0"/>
</radialGradient>
<radialGradient id="paint16_radial_1814_58378" cx="0" cy="0" r="1" gradientUnits="userSpaceOnUse" gradientTransform="translate(129.58 65.2621) rotate(70.0193) scale(11.1643 6.49314)">
<stop offset="0.426" stop-color="#E4EBE4"/>
<stop offset="1" stop-color="#D5E0D5" stop-opacity="0"/>
</radialGradient>
<radialGradient id="paint17_radial_1814_58378" cx="0" cy="0" r="1" gradientUnits="userSpaceOnUse" gradientTransform="translate(140.783 71.5077) rotate(62.4202) scale(11.3116 7.47563)">
<stop offset="0.426" stop-color="#E4EBE4"/>
<stop offset="1" stop-color="#D5E0D5" stop-opacity="0"/>
</radialGradient>
<radialGradient id="paint18_radial_1814_58378" cx="0" cy="0" r="1" gradientUnits="userSpaceOnUse" gradientTransform="translate(155.435 92.1593) rotate(70.1173) scale(10.3344 5.76854)">
<stop offset="0.426" stop-color="#E4EBE4"/>
<stop offset="1" stop-color="#D5E0D5" stop-opacity="0"/>
</radialGradient>
<radialGradient id="paint19_radial_1814_58378" cx="0" cy="0" r="1" gradientUnits="userSpaceOnUse" gradientTransform="translate(116.703 108.854) rotate(-105.754) scale(42.1082 18.4419)">
<stop offset="0.1124" stop-color="#6D2B11"/>
<stop offset="1" stop-color="#6D2B11" stop-opacity="0"/>
</radialGradient>
<linearGradient id="paint20_linear_1814_58378" x1="113.24" y1="69.2237" x2="116.911" y2="59.1388" gradientUnits="userSpaceOnUse">
<stop offset="0.6834" stop-color="#51200F"/>
<stop offset="1" stop-color="#51200F" stop-opacity="0"/>
</linearGradient>
<linearGradient id="paint21_linear_1814_58378" x1="128.125" y1="66.6167" x2="132.117" y2="55.6485" gradientUnits="userSpaceOnUse">
<stop offset="0.6834" stop-color="#51200F"/>
<stop offset="1" stop-color="#51200F" stop-opacity="0"/>
</linearGradient>
<linearGradient id="paint22_linear_1814_58378" x1="140.077" y1="73.6768" x2="144.033" y2="62.8073" gradientUnits="userSpaceOnUse">
<stop offset="0.6834" stop-color="#51200F"/>
<stop offset="1" stop-color="#51200F" stop-opacity="0"/>
</linearGradient>
<linearGradient id="paint23_linear_1814_58378" x1="154.694" y1="95.2188" x2="158.194" y2="85.6031" gradientUnits="userSpaceOnUse">
<stop offset="0.6834" stop-color="#51200F"/>
<stop offset="1" stop-color="#51200F" stop-opacity="0"/>
</linearGradient>
</defs>
</svg>
