<svg width="342" height="220" viewBox="0 0 342 220" fill="none" xmlns="http://www.w3.org/2000/svg">
<rect width="341.333" height="220" rx="8" fill="#91E6B3"/>
<path d="M190.908 73.8618L194.785 71.9233H205.723L201.154 74.4156L201.985 81.0618L209.185 82.8618C209.185 82.8618 203.092 82.308 200.185 83.2772L190.354 80.508L190.908 73.8618Z" fill="url(#paint0_radial_1814_58368)"/>
<path d="M199.631 77.3232C199.631 80.0924 201.569 82.4463 204.062 82.7232C205.446 82.8617 206.692 82.8617 208.077 82.8617C214.031 82.8617 219.846 81.0617 224.969 77.4617C225.8 76.9078 226.215 75.9386 226.215 74.9694C226.215 73.3078 224.969 72.0617 223.446 72.0617H204.477C201.846 71.9232 199.631 74.4155 199.631 77.3232Z" fill="url(#paint1_radial_1814_58368)"/>
<path d="M222.892 74.5543C222.892 75.3851 222.477 76.2159 221.923 76.7697L221.646 77.0466C218.185 79.539 214.169 80.9236 210.015 81.2005H209.877L211.262 82.7236C216.108 82.1697 220.815 80.3697 224.969 77.6005C225.8 77.0466 226.215 76.0774 226.215 75.1082C226.215 73.4466 224.969 72.2005 223.446 72.2005H220.677C221.923 71.9236 222.892 73.1697 222.892 74.5543Z" fill="url(#paint2_radial_1814_58368)"/>
<path d="M220.677 71.9233C221.923 71.9233 222.892 73.031 222.892 74.4156C222.892 75.2464 222.477 76.0772 221.923 76.631L221.646 76.908C218.185 79.4003 214.169 80.7849 210.016 81.0618H209.877L207.385 79.5387C211.4 79.5387 215.277 78.2926 218.6 75.8003C219.154 75.3849 219.431 74.6926 219.431 74.0003C219.431 72.8926 218.6 71.9233 217.631 71.9233H220.677Z" fill="url(#paint3_radial_1814_58368)"/>
<path d="M215.831 73.5847C215.831 74.1385 215.554 74.6924 215.138 74.9693C212.508 76.7693 209.461 77.7385 206.277 77.7385L207.246 79.677C211.261 79.677 215.138 78.4308 218.461 75.9385C219.015 75.5231 219.292 74.8308 219.292 74.1385C219.292 73.0308 218.461 72.0616 217.492 72.0616H214.308C215.138 71.9231 215.831 72.7539 215.831 73.5847Z" fill="url(#paint4_radial_1814_58368)"/>
<path d="M158.231 70.4C158.231 70.4 164.185 83.5539 175.262 84.2462C186.339 84.9385 201.431 83.2769 201.431 83.2769L200.462 72.0615H181.769C181.769 72.0615 172.077 48.8 164.323 46.1692C152.554 42.1539 150.2 55.5846 150.2 55.5846L158.231 70.4Z" fill="url(#paint5_linear_1814_58368)"/>
<path d="M181.769 33.0156C182.323 26.3695 177.477 20.6926 170.831 20.1387C164.462 19.5849 158.785 24.1541 157.954 30.5233C157.538 34.1233 156.569 37.5849 155.046 40.7695L154.908 41.1849L163.354 46.8618L167.508 43.6772C167.785 43.6772 168.062 43.8156 168.477 43.8156C174.985 44.6464 181.077 40.0772 181.908 33.431C181.769 33.2926 181.769 33.1541 181.769 33.0156Z" fill="url(#paint6_radial_1814_58368)"/>
<path d="M181.769 33.0156C182.323 26.3695 177.477 20.6926 170.831 20.1387C164.462 19.5849 158.785 24.1541 157.954 30.5233C157.538 34.1233 156.569 37.5849 155.046 40.7695L154.908 41.1849L163.354 46.8618L167.508 43.6772C167.785 43.6772 168.062 43.8156 168.477 43.8156C174.985 44.6464 181.077 40.0772 181.908 33.431C181.769 33.2926 181.769 33.1541 181.769 33.0156Z" fill="url(#paint7_radial_1814_58368)"/>
<path d="M162.523 41.4614L157.123 42.846L163.215 46.8614L167.369 43.6768C165.708 43.2614 164.046 42.5691 162.523 41.4614Z" fill="url(#paint8_radial_1814_58368)"/>
<path d="M181.769 30.5232C180.939 24.0155 174.985 19.3078 168.477 20.1386C163.077 20.8309 158.785 25.1232 158.092 30.5232C157.954 31.6309 157.815 32.7386 157.539 33.8462C161.554 36.0616 167.508 33.8463 171.246 28.7232C171.662 28.1693 172.077 27.477 172.354 26.7847C175.677 29.0001 179 30.2463 181.769 30.5232Z" fill="url(#paint9_radial_1814_58368)"/>
<path d="M128.6 50.3232C128.6 50.3232 127.77 51.4309 126.523 53.6463C127.216 52.6771 127.908 51.8463 128.6 51.0155V50.3232Z" fill="url(#paint10_radial_1814_58368)"/>
<path d="M164.046 123.985L143.831 106.677L132.754 109.446L129.016 98.0925V92.5541L118.492 92.1387C119.6 106.816 125.416 124.539 141.2 143.508L85.2617 163.031L89.9694 182C89.9694 182 160.585 167.185 168.2 158.462C181.769 142.954 164.046 123.985 164.046 123.985Z" fill="url(#paint11_radial_1814_58368)"/>
<path opacity="0.5" d="M168.2 158.6C181.908 142.954 164.047 123.985 164.047 123.985L143.831 106.677L132.754 109.446L129.016 98.0925V92.5541L118.493 92.1387C119.6 106.816 125.416 124.539 141.2 143.508C141.2 143.508 148.677 156.8 155.185 164.969C161.693 162.754 166.539 160.4 168.2 158.6Z" fill="url(#paint12_radial_1814_58368)"/>
<path d="M128.6 51.0156C127.908 51.8464 127.215 52.6772 126.523 53.6464C123.2 59.7387 117.108 73.5849 118.492 92.1387L129.015 92.5541L128.6 51.0156Z" fill="url(#paint13_radial_1814_58368)"/>
<path d="M150.2 38.9695C150.2 38.9695 140.508 34.5388 135.662 42.4311C134.139 44.7849 131.508 47.5542 128.739 51.1542C128.046 51.9849 127.354 52.8157 126.662 53.7849C123.339 59.8772 117.246 73.7234 118.631 92.2772L129.154 92.6926L156.846 93.9388L166.539 47.5542L150.2 38.9695Z" fill="url(#paint14_linear_1814_58368)"/>
<path d="M102.985 85.354L114.615 80.9232L116 57.3848L166.123 47.4155C166.123 47.4155 154.354 39.2463 149.923 37.7232C140.369 34.1232 124.169 33.0155 109.354 42.4309C88.4462 55.5848 102.985 85.354 102.985 85.354Z" fill="url(#paint15_linear_1814_58368)"/>
<path d="M154.77 92.5538C154.77 92.5538 195.893 89.3692 220.262 98.5076C235.077 104.046 249.339 133.815 249.339 133.815L236.462 150.154C224.831 138.662 216.8 124.4 201.431 123.292C186.062 122.185 121.539 137.138 118.493 92.1384L154.77 92.5538Z" fill="url(#paint16_linear_1814_58368)"/>
<path d="M222.615 70.8154H197C197 71.7847 197.831 72.6154 198.8 72.6154H222.615V70.8154Z" fill="url(#paint17_linear_1814_58368)"/>
<path d="M213.477 72.6155H239.231C239.646 72.6155 239.923 72.3386 239.923 71.9232L243.8 51.4309C243.938 51.0155 243.661 50.6001 243.246 50.6001H243.108H217.354C216.938 50.6001 216.661 50.877 216.661 51.2924L212.785 71.7847C212.646 72.2001 212.923 72.6155 213.338 72.6155C213.338 72.6155 213.338 72.6155 213.477 72.6155Z" fill="url(#paint18_linear_1814_58368)"/>
<path d="M211.815 71.646L215.692 51.1537C215.692 50.7383 216.108 50.4614 216.384 50.4614H217.215C216.8 50.4614 216.523 50.7383 216.523 51.1537L212.646 71.646C212.508 72.0614 212.784 72.4768 213.2 72.4768H213.338H212.508C212.092 72.4768 211.677 72.1999 211.677 71.646C211.815 71.7845 211.815 71.7845 211.815 71.646Z" fill="#9AAA97"/>
<path d="M93.7078 180.893L98.2771 182.416C102.292 183.8 104.923 187.816 104.646 192.108C104.369 194.877 102.846 197.508 100.354 198.893C98.2771 200.139 95.6463 200.277 93.4309 199.446C84.9847 196.539 78.2001 190.031 74.7386 181.723L73.4924 178.677C71.2771 173.277 73.9078 167.046 79.3078 164.693C79.7232 164.554 80.1386 164.416 80.4155 164.277L85.4001 162.893L93.7078 180.893Z" fill="url(#paint19_radial_1814_58368)"/>
<path d="M119.462 93.9387C119.739 95.3233 119.877 96.7079 119.877 98.0925L120.154 102.108C120.154 103.216 119.6 104.323 118.493 104.6C117.662 104.877 116.693 104.739 116 104.185L115.308 103.769C115.031 104.877 114.062 105.708 112.954 105.846C112.123 105.846 111.293 105.569 110.877 104.877L110.462 104.323C110.046 104.6 109.631 104.877 109.077 104.877C108.385 104.877 107.831 104.6 107.416 104.046L106.17 101.969C105.754 102.385 105.2 102.523 104.646 102.523C103.677 102.523 102.846 101.831 102.57 101C101.046 96.431 101.185 91.4463 102.708 86.8771L103.123 85.631L114.754 81.2002C115.031 81.754 115.308 82.1694 115.585 82.7233C116.277 83.9694 117.108 85.0771 118.077 85.9079L123.477 91.031C124.308 91.8617 124.447 92.9694 123.893 93.9387C123.2 95.0464 121.677 95.4617 120.57 94.7694C120.57 94.7694 120.431 94.7694 120.431 94.631L119.462 93.9387Z" fill="url(#paint20_radial_1814_58368)"/>
<path d="M118.493 104.739C119.6 104.323 120.293 103.354 120.154 102.246L119.877 98.2309C119.877 96.8463 119.739 95.4617 119.462 94.0771L114.339 93.3848L114.893 98.7848L115.308 103.077C115.308 103.354 115.308 103.631 115.308 103.769L115.862 104.323C116.693 104.877 117.523 105.016 118.493 104.739Z" fill="url(#paint21_radial_1814_58368)"/>
<path d="M112.954 105.708C114.062 105.708 115.031 104.739 115.308 103.631C115.308 103.354 115.308 103.077 115.308 102.939L114.893 98.6466L114.2 93.385L110.046 93.2466L110.6 98.0927L111.016 102.385C111.154 103.077 110.877 103.631 110.323 104.185L110.739 104.739C111.293 105.431 112.123 105.847 112.954 105.708Z" fill="url(#paint22_radial_1814_58368)"/>
<path d="M111.016 102.523L110.6 98.2308L110.047 93.3847L107 92.6924V96.4308L106.862 100.031C106.862 100.723 106.585 101.277 106.031 101.692L107.277 103.769C107.693 104.323 108.247 104.6 108.939 104.739C109.493 104.739 109.908 104.6 110.324 104.185C110.877 103.769 111.154 103.077 111.016 102.523Z" fill="url(#paint23_radial_1814_58368)"/>
<path d="M120.431 94.631C121.539 95.3233 123.062 95.1848 123.754 94.0771C124.447 93.1079 124.308 91.7233 123.339 90.8925L117.939 85.7695C117.662 85.4925 117.385 85.2156 117.247 85.0771L118.493 90.2002C118.493 90.2002 119.185 92.9695 119.462 94.0771L120.431 94.631Z" fill="url(#paint24_radial_1814_58368)"/>
<path d="M265.123 123.985C261.939 122.323 258.062 122.323 254.877 123.985C251.416 125.785 249.339 129.246 249.339 133.123V133.816L236.462 150.154L241.308 154.723C245.323 158.6 251.831 158.462 255.57 154.446C255.847 154.17 255.985 153.893 256.262 153.616L268.308 138.108C269.416 136.723 270.108 135.062 270.247 133.262C270.523 129.385 268.585 125.646 265.123 123.985Z" fill="url(#paint25_radial_1814_58368)"/>
<path d="M241.17 154.723C243.385 156.8 246.293 157.769 249.339 157.493V133.954L236.462 150.154L241.17 154.723Z" fill="url(#paint26_radial_1814_58368)"/>
<path d="M270.246 133.123C270.662 129.246 268.585 125.646 265.262 123.985C262.077 122.323 258.2 122.323 255.016 123.985C251.554 125.785 249.477 129.246 249.477 133.123V157.354L252.246 156.662C253.908 155.97 255.292 154.862 256.4 153.477L268.446 137.97C269.416 136.585 270.108 134.923 270.246 133.123Z" fill="url(#paint27_radial_1814_58368)"/>
<path d="M206.277 50.8772C204.615 51.0156 203.369 52.4003 203.231 54.0618L203.092 57.2464L202.954 54.0618C202.815 52.4003 201.569 51.0156 199.908 50.8772C201.569 50.7387 202.815 49.3541 202.954 47.6926L203.092 44.9233L203.231 47.6926C203.369 49.3541 204.615 50.6003 206.277 50.8772Z" fill="#DEBE1A"/>
<path d="M222.477 37.5849C221.508 37.7233 220.677 38.5541 220.677 39.5233L220.539 41.4618L220.4 39.5233C220.4 38.5541 219.569 37.7233 218.6 37.5849C219.569 37.4464 220.4 36.6156 220.4 35.6464L220.539 33.9849L220.677 35.6464C220.677 36.6156 221.508 37.4464 222.477 37.5849Z" fill="#DEBE1A"/>
<path d="M96.3384 161.646C96.3384 161.646 151.723 158.046 148.815 155.969C145.908 153.892 141.2 143.508 141.2 143.508L94.3999 159.846L96.3384 161.646Z" fill="url(#paint28_radial_1814_58368)"/>
<defs>
<radialGradient id="paint0_radial_1814_58368" cx="0" cy="0" r="1" gradientUnits="userSpaceOnUse" gradientTransform="translate(205.965 87.2617) scale(10.537 12.0258)">
<stop offset="0.38" stop-color="#BC5327"/>
<stop offset="0.59" stop-color="#BA5226"/>
<stop offset="0.69" stop-color="#B24E25"/>
<stop offset="0.77" stop-color="#A54822"/>
<stop offset="0.84" stop-color="#933F1D"/>
<stop offset="0.9" stop-color="#7B3417"/>
<stop offset="0.92" stop-color="#6D2D14"/>
</radialGradient>
<radialGradient id="paint1_radial_1814_58368" cx="0" cy="0" r="1" gradientUnits="userSpaceOnUse" gradientTransform="translate(216.704 83.3244) rotate(-1.63825) scale(22.7255 11.6576)">
<stop offset="0.38" stop-color="#BC5327"/>
<stop offset="0.59" stop-color="#BA5226"/>
<stop offset="0.69" stop-color="#B24E25"/>
<stop offset="0.77" stop-color="#A54822"/>
<stop offset="0.84" stop-color="#933F1D"/>
<stop offset="0.9" stop-color="#7B3417"/>
<stop offset="0.92" stop-color="#6D2D14"/>
</radialGradient>
<radialGradient id="paint2_radial_1814_58368" cx="0" cy="0" r="1" gradientUnits="userSpaceOnUse" gradientTransform="translate(213.899 74.1749) rotate(172.274) scale(10.2236 7.15404)">
<stop offset="0.76" stop-color="#6D2D14"/>
<stop offset="0.86" stop-color="#6D2D14" stop-opacity="0.63"/>
<stop offset="1" stop-color="#6D2D14" stop-opacity="0"/>
</radialGradient>
<radialGradient id="paint3_radial_1814_58368" cx="0" cy="0" r="1" gradientUnits="userSpaceOnUse" gradientTransform="translate(212.665 75.1601) rotate(163.67) scale(8.58936 5.93839)">
<stop offset="0.76" stop-color="#6D2D14"/>
<stop offset="0.86" stop-color="#6D2D14" stop-opacity="0.63"/>
<stop offset="1" stop-color="#6D2D14" stop-opacity="0"/>
</radialGradient>
<radialGradient id="paint4_radial_1814_58368" cx="0" cy="0" r="1" gradientUnits="userSpaceOnUse" gradientTransform="translate(210.991 71.4324) rotate(165.195) scale(8.22949 6.2575)">
<stop offset="0.76" stop-color="#6D2D14"/>
<stop offset="0.86" stop-color="#6D2D14" stop-opacity="0.63"/>
<stop offset="1" stop-color="#6D2D14" stop-opacity="0"/>
</radialGradient>
<linearGradient id="paint5_linear_1814_58368" x1="164.362" y1="78.9155" x2="185.88" y2="57.3968" gradientUnits="userSpaceOnUse">
<stop offset="0.1677" stop-color="#746493"/>
<stop offset="0.3581" stop-color="#8E7AB1"/>
<stop offset="0.6583" stop-color="#BDA1E7"/>
</linearGradient>
<radialGradient id="paint6_radial_1814_58368" cx="0" cy="0" r="1" gradientUnits="userSpaceOnUse" gradientTransform="translate(169.269 27.1608) rotate(23.1038) scale(16.1638)">
<stop offset="0.74" stop-color="#BC5118"/>
<stop offset="0.96" stop-color="#6D2B11"/>
<stop offset="1" stop-color="#51200F"/>
</radialGradient>
<radialGradient id="paint7_radial_1814_58368" cx="0" cy="0" r="1" gradientUnits="userSpaceOnUse" gradientTransform="translate(151.776 33.3021) rotate(23.1038) scale(16.1638)">
<stop offset="0.74" stop-color="#BC5118"/>
<stop offset="1" stop-color="#BC5118" stop-opacity="0"/>
</radialGradient>
<radialGradient id="paint8_radial_1814_58368" cx="0" cy="0" r="1" gradientUnits="userSpaceOnUse" gradientTransform="translate(168.534 40.8928) rotate(23.1038) scale(6.35652 6.35652)">
<stop offset="0.74" stop-color="#51200F"/>
<stop offset="1" stop-color="#51200F" stop-opacity="0"/>
</radialGradient>
<radialGradient id="paint9_radial_1814_58368" cx="0" cy="0" r="1" gradientUnits="userSpaceOnUse" gradientTransform="translate(170.447 22.179) rotate(23.1038) scale(16.6623)">
<stop offset="0.62" stop-color="#F7B0B2"/>
<stop offset="1" stop-color="#BDA1E7"/>
</radialGradient>
<radialGradient id="paint10_radial_1814_58368" cx="0" cy="0" r="1" gradientUnits="userSpaceOnUse" gradientTransform="translate(128.663 116.157) scale(55.779 55.7789)">
<stop offset="0.72" stop-color="#FCCD81"/>
<stop offset="1" stop-color="#EB9546"/>
</radialGradient>
<radialGradient id="paint11_radial_1814_58368" cx="0" cy="0" r="1" gradientUnits="userSpaceOnUse" gradientTransform="translate(129.283 116.157) scale(56.0214 56.0214)">
<stop offset="0.77" stop-color="#13544E"/>
<stop offset="1" stop-color="#0D3A35"/>
</radialGradient>
<radialGradient id="paint12_radial_1814_58368" cx="0" cy="0" r="1" gradientUnits="userSpaceOnUse" gradientTransform="translate(161.422 136.705) scale(29.4447 29.4447)">
<stop offset="0.77" stop-color="#13544E"/>
<stop offset="1" stop-color="#0D3A35"/>
</radialGradient>
<radialGradient id="paint13_radial_1814_58368" cx="0" cy="0" r="1" gradientUnits="userSpaceOnUse" gradientTransform="translate(128.663 116.157) scale(55.779 55.779)">
<stop offset="0.72" stop-color="#FCCD81"/>
<stop offset="1" stop-color="#EB9546"/>
</radialGradient>
<linearGradient id="paint14_linear_1814_58368" x1="116.091" y1="65.052" x2="163.853" y2="66.0217" gradientUnits="userSpaceOnUse">
<stop offset="0.1677" stop-color="#746493"/>
<stop offset="0.3581" stop-color="#8E7AB1"/>
<stop offset="0.6583" stop-color="#BDA1E7"/>
</linearGradient>
<linearGradient id="paint15_linear_1814_58368" x1="126.258" y1="61.2291" x2="139.272" y2="40.5131" gradientUnits="userSpaceOnUse">
<stop offset="0.1677" stop-color="#746493"/>
<stop offset="0.3581" stop-color="#8E7AB1"/>
<stop offset="0.6583" stop-color="#BDA1E7"/>
</linearGradient>
<linearGradient id="paint16_linear_1814_58368" x1="206.571" y1="62.1148" x2="182.599" y2="115.96" gradientUnits="userSpaceOnUse">
<stop offset="0.77" stop-color="#13544E"/>
<stop offset="1" stop-color="#0D3A35"/>
</linearGradient>
<linearGradient id="paint17_linear_1814_58368" x1="209.744" y1="72.5833" x2="209.744" y2="69.1809" gradientUnits="userSpaceOnUse">
<stop stop-color="#9AAA97"/>
<stop offset="0.93" stop-color="#E4EBE4"/>
</linearGradient>
<linearGradient id="paint18_linear_1814_58368" x1="228.236" y1="72.5834" x2="228.236" y2="50.5317" gradientUnits="userSpaceOnUse">
<stop stop-color="#9AAA97"/>
<stop offset="0.93" stop-color="#E4EBE4"/>
</linearGradient>
<radialGradient id="paint19_radial_1814_58368" cx="0" cy="0" r="1" gradientUnits="userSpaceOnUse" gradientTransform="translate(94.4964 180.717) rotate(42.6537) scale(22.2484 15.7964)">
<stop offset="0.38" stop-color="#E771AB"/>
<stop offset="0.61" stop-color="#E570AA"/>
<stop offset="0.71" stop-color="#DD6BA5"/>
<stop offset="0.8" stop-color="#D0629D"/>
<stop offset="0.87" stop-color="#BE5691"/>
<stop offset="0.92" stop-color="#A94884"/>
</radialGradient>
<radialGradient id="paint20_radial_1814_58368" cx="0" cy="0" r="1" gradientUnits="userSpaceOnUse" gradientTransform="translate(115.361 89.9306) rotate(66.6291) scale(20.6032 15.8656)">
<stop offset="0.38" stop-color="#BC5327"/>
<stop offset="0.59" stop-color="#BA5226"/>
<stop offset="0.69" stop-color="#B24E25"/>
<stop offset="0.77" stop-color="#A54822"/>
<stop offset="0.84" stop-color="#933F1D"/>
<stop offset="0.9" stop-color="#7B3417"/>
<stop offset="0.92" stop-color="#6D2D14"/>
</radialGradient>
<radialGradient id="paint21_radial_1814_58368" cx="0" cy="0" r="1" gradientUnits="userSpaceOnUse" gradientTransform="translate(118.9 93.023) rotate(62.9558) scale(12.6081 9.32992)">
<stop offset="0.38" stop-color="#6D2D14" stop-opacity="0"/>
<stop offset="0.5" stop-color="#6D2D14" stop-opacity="0.03"/>
<stop offset="0.6" stop-color="#6D2D14" stop-opacity="0.13"/>
<stop offset="0.7" stop-color="#6D2D14" stop-opacity="0.3"/>
<stop offset="0.79" stop-color="#6D2D14" stop-opacity="0.54"/>
<stop offset="0.88" stop-color="#6D2D14" stop-opacity="0.85"/>
<stop offset="0.92" stop-color="#6D2D14"/>
</radialGradient>
<radialGradient id="paint22_radial_1814_58368" cx="0" cy="0" r="1" gradientUnits="userSpaceOnUse" gradientTransform="translate(115.305 93.3881) rotate(69.1891) scale(13.2443 10.4632)">
<stop offset="0.38" stop-color="#6D2D14" stop-opacity="0"/>
<stop offset="0.47" stop-color="#6D2D14" stop-opacity="0.05"/>
<stop offset="0.58" stop-color="#6D2D14" stop-opacity="0.19"/>
<stop offset="0.71" stop-color="#6D2D14" stop-opacity="0.43"/>
<stop offset="0.84" stop-color="#6D2D14" stop-opacity="0.76"/>
<stop offset="0.92" stop-color="#6D2D14"/>
</radialGradient>
<radialGradient id="paint23_radial_1814_58368" cx="0" cy="0" r="1" gradientUnits="userSpaceOnUse" gradientTransform="translate(110.42 89.5137) rotate(77.3562) scale(15.3123 10.1054)">
<stop offset="0.38" stop-color="#6D2D14" stop-opacity="0"/>
<stop offset="0.51" stop-color="#6D2D14" stop-opacity="0.03"/>
<stop offset="0.6" stop-color="#6D2D14" stop-opacity="0.11"/>
<stop offset="0.67" stop-color="#6D2D14" stop-opacity="0.25"/>
<stop offset="0.74" stop-color="#6D2D14" stop-opacity="0.44"/>
<stop offset="0.8" stop-color="#6D2D14" stop-opacity="0.7"/>
<stop offset="0.86" stop-color="#6D2D14"/>
</radialGradient>
<radialGradient id="paint24_radial_1814_58368" cx="0" cy="0" r="1" gradientUnits="userSpaceOnUse" gradientTransform="translate(122.712 83.9378) rotate(35.5876) scale(10.4821)">
<stop offset="0.38" stop-color="#6D2D14" stop-opacity="0"/>
<stop offset="0.58" stop-color="#6D2D14" stop-opacity="0.02"/>
<stop offset="0.67" stop-color="#6D2D14" stop-opacity="0.09"/>
<stop offset="0.74" stop-color="#6D2D14" stop-opacity="0.21"/>
<stop offset="0.8" stop-color="#6D2D14" stop-opacity="0.38"/>
<stop offset="0.85" stop-color="#6D2D14" stop-opacity="0.6"/>
<stop offset="0.9" stop-color="#6D2D14" stop-opacity="0.87"/>
<stop offset="0.92" stop-color="#6D2D14"/>
</radialGradient>
<radialGradient id="paint25_radial_1814_58368" cx="0" cy="0" r="1" gradientUnits="userSpaceOnUse" gradientTransform="translate(256.031 129.43) rotate(-36.6167) scale(25.9969 28.0775)">
<stop offset="0.38" stop-color="#E771AB"/>
<stop offset="0.61" stop-color="#E570AA"/>
<stop offset="0.71" stop-color="#DD6BA5"/>
<stop offset="0.8" stop-color="#D0629D"/>
<stop offset="0.87" stop-color="#BE5691"/>
<stop offset="0.92" stop-color="#A94884"/>
</radialGradient>
<radialGradient id="paint26_radial_1814_58368" cx="0" cy="0" r="1" gradientUnits="userSpaceOnUse" gradientTransform="translate(249.617 125.278) rotate(30.666) scale(31.9205 17.0269)">
<stop offset="0.38" stop-color="#A94884"/>
<stop offset="0.55" stop-color="#A94884" stop-opacity="0.99"/>
<stop offset="0.64" stop-color="#A94884" stop-opacity="0.94"/>
<stop offset="0.7" stop-color="#A94884" stop-opacity="0.86"/>
<stop offset="0.75" stop-color="#A94884" stop-opacity="0.76"/>
<stop offset="0.8" stop-color="#A94884" stop-opacity="0.61"/>
<stop offset="0.85" stop-color="#A94884" stop-opacity="0.44"/>
<stop offset="0.89" stop-color="#A94884" stop-opacity="0.23"/>
<stop offset="0.92" stop-color="#A94884" stop-opacity="0"/>
</radialGradient>
<radialGradient id="paint27_radial_1814_58368" cx="0" cy="0" r="1" gradientUnits="userSpaceOnUse" gradientTransform="translate(264.594 146.719) rotate(125.427) scale(46.9735 25.8374)">
<stop offset="0.38" stop-color="#A94884" stop-opacity="0"/>
<stop offset="0.55" stop-color="#A94884" stop-opacity="0.01"/>
<stop offset="0.64" stop-color="#A94884" stop-opacity="0.06"/>
<stop offset="0.7" stop-color="#A94884" stop-opacity="0.14"/>
<stop offset="0.75" stop-color="#A94884" stop-opacity="0.24"/>
<stop offset="0.8" stop-color="#A94884" stop-opacity="0.39"/>
<stop offset="0.85" stop-color="#A94884" stop-opacity="0.56"/>
<stop offset="0.89" stop-color="#A94884" stop-opacity="0.77"/>
<stop offset="0.92" stop-color="#A94884"/>
</radialGradient>
<radialGradient id="paint28_radial_1814_58368" cx="0" cy="0" r="1" gradientUnits="userSpaceOnUse" gradientTransform="translate(140.979 143.638) scale(52.2227 52.2227)">
<stop stop-color="#0D3A35"/>
<stop offset="0.23" stop-color="#13544E" stop-opacity="0"/>
</radialGradient>
</defs>
</svg>
